<svg width="500" height="500" viewBox="0 0 500 500" fill="none" xmlns="http://www.w3.org/2000/svg">
<g clip-path="url(#clip0_40_84)">
<mask id="mask0_40_84" style="mask-type:alpha" maskUnits="userSpaceOnUse" x="-15" y="43" width="302" height="573">
<path d="M125.025 110.262C132.811 66.0758 174.943 36.5667 219.129 44.3521V44.3521C263.316 52.1374 292.825 94.2692 285.04 138.456L279.895 167.657C263.566 260.334 235.506 350.556 196.392 436.147L135.288 569.858C120.405 602.427 85.3953 620.826 50.1301 614.612V614.612C-0.543459 605.684 -29.1272 551.295 -7.74075 504.496L36.3779 407.953C75.4917 322.362 103.551 232.141 119.88 139.464L125.025 110.262Z" fill="url(#paint0_radial_40_84)"/>
</mask>
<g mask="url(#mask0_40_84)">
<path d="M125.025 110.262C132.811 66.0758 174.943 36.5667 219.129 44.3521V44.3521C263.316 52.1374 292.825 94.2692 285.04 138.456L279.895 167.657C263.566 260.334 235.506 350.556 196.392 436.147L135.288 569.858C120.405 602.427 85.3953 620.826 50.1301 614.612V614.612C-0.543459 605.684 -29.1272 551.295 -7.74075 504.496L36.3779 407.953C75.4917 322.362 103.551 232.141 119.88 139.464L125.025 110.262Z" fill="#C4C4C4"/>
<path d="M125.025 110.262C132.811 66.0758 174.943 36.5667 219.129 44.3521V44.3521C263.316 52.1374 292.825 94.2692 285.04 138.456L279.895 167.657C263.566 260.334 235.506 350.556 196.392 436.147L135.288 569.858C120.405 602.427 85.3953 620.826 50.1301 614.612V614.612C-0.543459 605.684 -29.1272 551.295 -7.74075 504.496L36.3779 407.953C75.4917 322.362 103.551 232.141 119.88 139.464L125.025 110.262Z" fill="url(#paint1_linear_40_84)"/>
<rect x="157.326" y="119.344" width="55.3962" height="55.3962" rx="27.6981" transform="rotate(9.99256 157.326 119.344)" fill="white"/>
<rect x="168.896" y="142.26" width="31.655" height="31.655" rx="15.8275" transform="rotate(9.99256 168.896 142.26)" fill="url(#paint2_linear_40_84)"/>
<rect x="219.675" y="130.329" width="55.3962" height="55.3962" rx="27.6981" transform="rotate(9.99256 219.675 130.329)" fill="white"/>
<rect x="231.245" y="153.246" width="31.655" height="31.655" rx="15.8275" transform="rotate(9.99256 231.245 153.246)" fill="url(#paint3_linear_40_84)"/>
<path d="M187.52 208.911L184.025 211.041C182.327 212.076 183.138 214.677 185.133 214.593C203.534 213.816 221.898 217.052 238.926 224.071C240.772 224.832 242.423 222.665 241.181 221.112L238.624 217.915C226.312 202.522 204.352 198.653 187.52 208.911Z" fill="white"/>
</g>
<rect x="284.5" y="253.5" width="175" height="175" rx="87.5" fill="url(#paint4_linear_40_84)" stroke="white" stroke-width="5"/>
<mask id="mask1_40_84" style="mask-type:alpha" maskUnits="userSpaceOnUse" x="287" y="256" width="170" height="170">
<rect x="287" y="256" width="170" height="170" rx="85" fill="url(#paint5_linear_40_84)"/>
</mask>
<g mask="url(#mask1_40_84)">
<path fill-rule="evenodd" clip-rule="evenodd" d="M372 253C323.399 253 284 292.399 284 341C284 389.601 323.399 429 372 429C420.601 429 460 389.601 460 341C460 292.399 420.601 253 372 253ZM286.694 341C286.694 357.413 291.329 372.743 299.362 385.753C299.476 385.697 299.589 385.64 299.703 385.584C300.538 385.172 301.349 384.79 302.147 384.414L302.148 384.414C303.375 383.835 304.571 383.272 305.773 382.639C307.178 381.899 308.414 380.693 309.685 379.256C310.033 378.863 310.391 378.443 310.756 378.015L310.758 378.012L310.759 378.011C311.661 376.952 312.611 375.838 313.587 374.918C314.118 374.419 315.441 373.141 316.455 371.801C316.969 371.123 317.342 370.508 317.519 370.023C317.618 369.751 317.625 369.615 317.621 369.564C317.276 369.134 316.799 368.779 316.138 368.31L316.049 368.247C315.439 367.815 314.666 367.267 314.053 366.523C312.541 364.691 312.668 362.239 312.787 360.629C312.981 358.009 314.234 354.851 315.317 352.685C316.069 351.181 316.972 349.797 317.856 348.482C317.989 348.285 318.12 348.09 318.251 347.896C319.007 346.776 319.732 345.702 320.381 344.573C321.849 342.019 321.968 339.92 322.012 336.78C322.04 334.706 322.272 332.623 322.528 330.596C322.581 330.176 322.635 329.759 322.689 329.345L322.689 329.343C322.897 327.739 323.1 326.177 323.222 324.627C323.362 322.855 324.803 321.648 325.918 320.907C326.753 320.353 327.752 319.849 328.482 319.481C328.758 319.342 328.995 319.222 329.171 319.127C329.913 318.722 330.751 318.326 331.556 317.946L331.557 317.946L331.56 317.944C331.985 317.744 332.401 317.547 332.789 317.356C333.976 316.771 335.03 316.177 335.869 315.463C336.408 315.004 336.594 314.343 336.448 313.319C336.296 312.26 335.828 311.126 335.386 310.055L335.385 310.054C334.854 308.768 333.935 307.839 332.736 306.976C332.13 306.539 331.477 306.136 330.776 305.707L330.669 305.642C330.012 305.24 329.312 304.812 328.641 304.342C327.633 303.636 326.978 303.414 326.355 303.346C325.722 303.277 325.066 303.351 323.972 303.475L323.9 303.483C323.775 303.498 323.644 303.512 323.507 303.527C320.469 303.865 318.603 303.054 316.207 301.795C314.861 301.087 313.473 300.51 312.021 299.907C311.797 299.814 311.572 299.72 311.345 299.626C309.67 298.926 307.929 298.168 306.258 297.15C305.562 296.726 304.847 296.195 304.187 295.706C303.919 295.506 303.659 295.313 303.414 295.138C302.547 294.517 301.76 294.025 300.966 293.747C291.949 307.274 286.694 323.523 286.694 341ZM420.799 271.021C406.971 261.36 390.147 255.694 372 255.694C356.053 255.694 341.128 260.07 328.36 267.686C329.265 269.182 330.546 270.48 332.192 271.672C334.099 273.053 335.702 273.884 337.77 273.918C338.004 273.922 338.266 273.911 338.586 273.895L338.646 273.892C338.937 273.878 339.271 273.862 339.606 273.861C340.303 273.859 341.195 273.919 342.014 274.329C345.194 275.919 348.4 277.857 351.349 279.765C352.077 280.236 352.861 280.84 353.608 281.415L353.609 281.416C353.958 281.685 354.299 281.948 354.623 282.188C355.714 282.997 356.71 283.637 357.657 283.952C363.738 285.98 369.164 285.8 375.242 284.027C376.946 283.53 378.658 282.994 380.382 282.455C388.671 279.861 397.228 277.184 406.397 278.33C408.149 278.549 410.276 278.517 412.203 278.057C414.145 277.593 415.715 276.739 416.609 275.456C417.421 274.29 418.548 273.209 419.561 272.237L419.562 272.236C419.764 272.043 419.96 271.854 420.149 271.669C420.375 271.449 420.592 271.233 420.799 271.021ZM326.069 269.102C327.177 270.924 328.714 272.479 330.612 273.854C332.68 275.351 334.833 276.564 337.725 276.612C338.061 276.618 338.409 276.601 338.718 276.586L338.762 276.584C339.068 276.569 339.343 276.555 339.613 276.555C340.198 276.553 340.568 276.618 340.809 276.738C343.865 278.266 346.978 280.145 349.885 282.027C350.523 282.439 351.15 282.923 351.839 283.454C352.21 283.741 352.599 284.041 353.018 284.351C354.14 285.184 355.426 286.048 356.805 286.508C363.488 288.736 369.48 288.513 375.996 286.613C377.81 286.084 379.596 285.527 381.365 284.975C389.638 282.396 397.528 279.937 406.062 281.003C408.073 281.255 410.531 281.226 412.828 280.677C415.109 280.133 417.4 279.032 418.819 276.996C419.465 276.07 420.354 275.214 421.364 274.242C421.581 274.033 421.804 273.819 422.031 273.598C422.351 273.285 422.68 272.958 423.004 272.614C430.089 277.907 436.324 284.275 441.467 291.477C439.602 291.285 437.735 291.149 435.871 291.036C435.245 290.998 434.595 290.953 433.929 290.907C431.647 290.751 429.164 290.58 426.715 290.607C423.54 290.641 420.278 291.002 417.356 292.208C416.485 292.567 415.168 293.164 413.959 293.939C412.816 294.673 411.485 295.744 410.974 297.148C410.669 297.986 410.396 298.915 410.133 299.805L410.132 299.808C410.014 300.209 409.898 300.603 409.782 300.977C409.392 302.24 408.983 303.371 408.44 304.303C407.573 305.789 406.27 306.641 404.642 307.202C403.216 307.694 401.65 307.93 399.985 308.181C399.684 308.227 399.38 308.273 399.073 308.321C396.223 308.766 393.206 308.833 390.097 308.838C389.528 308.838 388.955 308.837 388.38 308.835C385.845 308.829 383.263 308.823 380.774 309.001C380.544 309.017 380.279 309.023 379.954 309.031C379.803 309.035 379.64 309.039 379.461 309.044C378.931 309.06 378.314 309.089 377.704 309.171C377.101 309.251 376.438 309.392 375.835 309.664C375.225 309.939 374.594 310.388 374.205 311.121C372.78 313.814 371.671 316.383 370.817 319.356C370.701 319.758 370.653 320.195 370.62 320.513L370.608 320.618C370.575 320.929 370.551 321.157 370.509 321.358L370.506 321.374L370.487 321.374C370.239 321.372 369.977 321.37 369.766 321.38C369.474 321.393 369.019 321.431 368.588 321.661C368.071 321.936 367.769 322.381 367.617 322.857C367.485 323.269 367.458 323.726 367.458 324.152C367.458 324.67 367.454 325.195 367.45 325.727C367.424 329.089 367.397 332.701 368.355 336.174C368.57 336.953 368.967 337.637 369.329 338.199C369.493 338.453 369.638 338.668 369.773 338.867C369.974 339.164 370.152 339.426 370.329 339.731C370.598 340.192 370.727 340.536 370.756 340.828C370.782 341.079 370.743 341.383 370.48 341.801C369.638 343.139 368.411 343.721 366.582 344.495C365.755 344.845 365.062 345.417 364.535 345.852L364.413 345.953C363.811 346.448 363.375 346.776 362.897 346.949L362.743 347.004C361.611 347.411 360.747 347.722 359.984 348.246C359.169 348.805 358.527 349.562 357.644 350.694C356.217 352.522 355.133 354.131 354.477 355.919C353.81 357.735 353.62 359.638 353.81 362.02C353.913 363.31 354.222 364.994 355.703 366.114C355.939 366.293 356.214 366.524 356.551 366.809L356.742 366.97C357.152 367.314 357.623 367.705 358.119 368.069C358.612 368.43 359.162 368.79 359.738 369.058C360.305 369.323 360.981 369.539 361.7 369.515C363.968 369.439 366.118 368.204 367.893 366.864C369.389 365.735 370.782 364.4 371.902 363.327L371.904 363.325L371.905 363.324C372.13 363.108 372.344 362.903 372.546 362.712C373.38 361.923 374.414 361.343 375.633 360.684L375.803 360.592C376.931 359.984 378.214 359.292 379.322 358.323C379.912 357.807 380.327 357.163 380.63 356.694L380.647 356.668C380.901 356.275 381.085 355.996 381.264 355.786C381.293 355.793 381.324 355.803 381.359 355.813C381.485 355.852 381.594 355.891 381.726 355.938C381.799 355.964 381.879 355.993 381.974 356.026C382.171 356.094 382.516 356.212 382.867 356.239C383.359 356.277 383.846 356.344 384.378 356.418L384.381 356.418C384.555 356.442 384.733 356.467 384.918 356.491C385.636 356.586 386.428 356.674 387.223 356.653C388.891 356.608 390.594 356.071 391.953 354.281C392.296 353.829 392.551 353.318 392.752 352.896C392.807 352.781 392.858 352.673 392.906 352.57C393.052 352.259 393.175 351.997 393.317 351.747C393.675 351.115 393.893 351.02 394.168 351.015C395.14 350.996 396.14 351.452 397.196 352.183C397.778 352.586 398.333 352.913 398.838 353.202C398.949 353.265 399.055 353.325 399.159 353.384L399.176 353.394C399.553 353.608 399.888 353.798 400.216 354.004C401.018 354.508 401.676 355.047 402.265 355.946C402.306 356.01 402.395 356.211 402.455 356.655C402.512 357.079 402.53 357.613 402.518 358.252C402.503 359.035 402.449 359.849 402.391 360.717L402.391 360.718C402.351 361.322 402.309 361.952 402.277 362.615C402.205 364.126 402.193 365.752 402.507 367.088C402.821 368.431 403.576 369.88 405.312 370.265C405.809 370.376 406.416 370.581 407.169 370.836C407.276 370.873 407.386 370.91 407.499 370.948C408.361 371.239 409.36 371.564 410.352 371.758C411.333 371.951 412.435 372.042 413.476 371.766C413.778 371.685 414.069 371.575 414.345 371.434C414.53 371.745 414.796 371.966 415.048 372.103C415.424 372.309 415.824 372.372 416.102 372.393C416.656 372.437 417.29 372.356 417.705 372.205C419.011 371.73 419.609 370.409 419.896 369.533C420.218 368.555 420.347 367.517 420.397 366.89C420.866 361.026 416.976 357.441 413.499 354.236C413.331 354.081 413.164 353.927 412.999 353.774C412.543 353.352 412.05 352.931 411.574 352.525C411.479 352.443 411.384 352.363 411.291 352.283C410.717 351.792 410.169 351.312 409.665 350.813C408.651 349.808 407.912 348.811 407.592 347.689C407.59 347.684 407.584 347.66 407.576 347.616C407.566 347.565 407.554 347.499 407.543 347.423C407.537 347.382 407.532 347.34 407.527 347.298C408.807 347.168 410.171 347.17 411.592 347.217C412.169 347.236 412.767 347.263 413.37 347.29C414.522 347.342 415.696 347.395 416.798 347.395C419.819 347.395 422.219 348.955 425.081 350.816L425.082 350.816C425.379 351.01 425.682 351.206 425.99 351.404C426.724 351.876 427.354 352.381 428.034 352.925C428.271 353.115 428.514 353.31 428.769 353.509C429.723 354.255 430.79 355.017 432.131 355.563C435.066 356.759 438.078 356.709 440.857 356.663C441.381 356.654 441.898 356.646 442.403 356.646C443.287 356.646 444.112 357.069 445.171 357.827C445.379 357.975 445.601 358.143 445.837 358.32C446.685 358.957 447.703 359.721 448.79 360.197C450.83 361.09 452.698 361.807 454.625 362.303C450.873 376.897 443.356 389.981 433.172 400.457C432.962 400.037 432.678 399.658 432.3 399.333C431.289 398.462 429.891 398.24 428.461 398.192C425.829 398.104 423.229 398.533 420.769 398.953L420.489 399.001C418.089 399.412 415.821 399.8 413.558 399.8C411.722 399.8 409.88 399.702 407.994 399.601L407.982 399.6C406.112 399.5 404.198 399.398 402.275 399.398C401.685 399.398 401.371 399.278 401.185 399.162C400.995 399.043 400.817 398.852 400.625 398.505C400.423 398.137 400.256 397.695 400.028 397.093L400.022 397.078C399.805 396.502 399.542 395.813 399.171 395.124C398.715 394.277 397.971 393.798 397.232 393.536C396.512 393.279 395.725 393.2 395.014 393.185C394.295 393.17 393.566 393.22 392.943 393.269C392.842 393.277 392.744 393.285 392.651 393.292C392.135 393.333 391.733 393.365 391.416 393.365C390.426 393.365 389.49 393.127 388.434 392.792C388.332 392.76 388.227 392.726 388.121 392.692C388.022 392.659 387.92 392.626 387.817 392.592L387.809 392.589C386.943 392.305 385.968 391.985 384.954 391.801C383.821 391.595 382.691 391.537 381.653 391.484L381.548 391.479C380.453 391.423 379.452 391.366 378.464 391.177C375.243 390.56 373.833 389.559 371.297 387.758C371.035 387.573 370.762 387.379 370.473 387.176C369.432 386.443 368.333 385.798 367.308 385.197L367.305 385.196L367.304 385.195C366.839 384.922 366.389 384.658 365.967 384.399C364.562 383.537 363.3 382.64 362.192 381.394C360.159 379.107 357.167 379.554 355.206 380.044C354.554 380.207 353.882 380.428 353.268 380.631L353.266 380.631C353.068 380.696 352.875 380.76 352.691 380.819C351.894 381.073 351.199 381.264 350.55 381.329C349.542 381.43 348.537 381.708 347.666 381.949L347.501 381.995C346.54 382.261 345.741 382.467 345.001 382.508C344.227 382.551 343.485 382.857 342.852 383.22C342.203 383.592 341.576 384.079 341.014 384.597C339.914 385.611 338.905 386.892 338.436 387.958L338.432 387.969C338.236 388.413 337.884 389.213 337.744 390.034C337.609 390.827 337.6 392.13 338.727 392.974C339.874 393.835 340.917 394.864 341.999 395.979C342.177 396.162 342.356 396.348 342.537 396.536C343.167 397.189 343.818 397.865 344.498 398.518C344.487 398.69 344.477 398.892 344.477 399.098C344.479 399.528 344.517 400.438 345.174 401.094C345.509 401.429 345.829 401.652 346.091 401.815C346.173 401.867 346.266 401.922 346.336 401.964L346.372 401.985L346.408 402.007C346.463 402.041 346.501 402.064 346.527 402.082C346.535 402.13 346.544 402.216 346.544 402.354C346.544 403.271 346.652 404.164 346.749 404.972L346.755 405.022C346.857 405.868 346.947 406.631 346.947 407.403C346.947 408.405 347.127 409.292 347.329 410.066C347.428 410.444 347.517 410.749 347.599 411.029C347.705 411.391 347.799 411.711 347.885 412.091C348.017 412.675 348.06 413.157 347.987 413.621C347.916 414.074 347.72 414.6 347.238 415.242C346.942 415.636 346.742 416.1 346.711 416.618C346.681 417.133 346.824 417.586 347.024 417.954C347.395 418.636 348.036 419.161 348.555 419.537C348.938 419.815 349.382 420.097 349.769 420.344C349.919 420.439 350.061 420.53 350.188 420.612C350.659 420.92 350.923 421.123 351.048 421.252C351.05 421.26 351.053 421.27 351.056 421.282C351.08 421.375 351.103 421.524 351.113 421.734C351.135 422.155 351.1 422.696 351.018 423.277C350.999 423.415 350.977 423.553 350.953 423.69C330.13 418.406 312.361 405.463 300.822 388.036L300.894 388C301.634 387.635 302.411 387.269 303.198 386.897C304.48 386.292 305.792 385.673 307.027 385.023C308.888 384.043 310.392 382.522 311.702 381.041C312.131 380.557 312.533 380.085 312.922 379.628L312.922 379.628C313.778 378.623 314.57 377.693 315.434 376.88C315.983 376.363 317.445 374.957 318.603 373.427C319.176 372.671 319.736 371.805 320.049 370.947C320.348 370.129 320.55 368.941 319.774 367.945C319.154 367.147 318.35 366.577 317.721 366.13L317.697 366.113C317.008 365.624 316.505 365.262 316.13 364.808C315.394 363.917 315.346 362.56 315.474 360.828C315.628 358.743 316.688 355.966 317.726 353.89C318.395 352.553 319.213 351.292 320.092 349.984C320.127 349.933 320.161 349.882 320.196 349.83C320.242 349.762 320.288 349.694 320.334 349.625L320.474 349.417C321.228 348.301 322.015 347.136 322.716 345.916C324.554 342.72 324.661 340.012 324.705 336.817C324.732 334.904 324.946 332.947 325.201 330.934C325.251 330.534 325.304 330.13 325.357 329.723C325.566 328.112 325.779 326.464 325.908 324.839C325.939 324.439 326.336 323.864 327.409 323.151C328.106 322.688 328.82 322.329 329.497 321.989C329.829 321.822 330.152 321.66 330.461 321.492C331.143 321.12 331.843 320.79 332.592 320.437L332.593 320.436C333.036 320.227 333.497 320.01 333.98 319.772C335.216 319.163 336.515 318.451 337.616 317.514C339.143 316.213 339.327 314.432 339.114 312.938C338.915 311.538 338.334 310.136 337.925 309.146L337.875 309.026C337.078 307.095 335.721 305.806 334.31 304.79C333.611 304.286 332.875 303.833 332.181 303.409L332.097 303.357C331.421 302.944 330.786 302.556 330.186 302.135C328.913 301.245 327.835 300.798 326.647 300.668C325.694 300.564 324.705 300.678 323.667 300.798C323.516 300.815 323.363 300.833 323.21 300.85C320.976 301.098 319.699 300.587 317.461 299.41C315.998 298.641 314.487 298.014 313.042 297.414L313.032 297.41C312.814 297.32 312.598 297.23 312.383 297.14C310.718 296.444 309.142 295.753 307.659 294.85C307.073 294.492 306.522 294.083 305.912 293.63C305.619 293.412 305.313 293.185 304.983 292.948C304.252 292.424 303.435 291.882 302.533 291.476C308.871 282.602 316.867 274.993 326.069 269.102ZM353.685 423.654C353.654 423.874 353.618 424.094 353.578 424.312C359.511 425.618 365.675 426.306 372 426.306C394.884 426.306 415.663 417.295 430.984 402.628C430.921 401.815 430.708 401.517 430.542 401.374C430.279 401.148 429.711 400.929 428.371 400.884C426.052 400.807 423.711 401.183 421.223 401.608L420.869 401.669C418.53 402.07 416.057 402.494 413.558 402.494C411.646 402.494 409.74 402.392 407.874 402.292L407.85 402.291C405.964 402.19 404.118 402.092 402.275 402.092C401.305 402.092 400.466 401.889 399.757 401.447C399.053 401.007 398.596 400.403 398.266 399.805C397.968 399.265 397.74 398.658 397.54 398.13L397.503 398.031C397.282 397.447 397.075 396.913 396.799 396.401C396.748 396.307 396.64 396.184 396.329 396.074C396 395.957 395.541 395.891 394.957 395.878C394.383 395.866 393.77 395.906 393.153 395.955C393.067 395.961 392.979 395.968 392.89 395.976C392.384 396.016 391.851 396.059 391.416 396.059C389.997 396.059 388.737 395.714 387.621 395.36C387.364 395.279 387.118 395.199 386.879 395.12C386.036 394.844 385.286 394.599 384.472 394.451C383.513 394.277 382.534 394.227 381.445 394.171L381.41 394.169C380.335 394.114 379.155 394.052 377.958 393.823C374.146 393.093 372.308 391.785 369.75 389.965C369.483 389.775 369.209 389.58 368.923 389.379C367.971 388.709 367.041 388.164 366.07 387.595C365.579 387.308 365.078 387.014 364.558 386.695C363.061 385.777 361.542 384.718 360.179 383.184C359.289 382.183 357.833 382.164 355.859 382.658C355.311 382.795 354.776 382.971 354.188 383.164C353.971 383.236 353.746 383.309 353.511 383.385C352.687 383.648 351.765 383.915 350.818 384.009C350.046 384.087 349.245 384.308 348.309 384.567L348.218 384.592C347.295 384.847 346.224 385.139 345.151 385.198C344.961 385.209 344.639 385.301 344.192 385.557C343.762 385.804 343.296 386.158 342.84 386.578C341.902 387.442 341.171 388.431 340.902 389.043C340.692 389.521 340.477 390.035 340.4 390.486C340.365 390.691 340.37 390.798 340.379 390.847C341.694 391.837 342.85 392.988 343.932 394.102C344.123 394.299 344.311 394.494 344.497 394.687L344.5 394.69C345.201 395.417 345.876 396.117 346.576 396.776C346.732 396.87 346.868 396.996 346.974 397.144C347.041 397.204 347.107 397.263 347.174 397.322C347.732 397.815 347.785 398.666 347.292 399.223C347.287 399.229 347.282 399.235 347.277 399.241C347.269 399.249 347.261 399.258 347.252 399.267C347.238 399.281 347.224 399.295 347.209 399.309C347.309 399.393 347.41 399.463 347.52 399.531C347.542 399.545 347.576 399.566 347.618 399.591C347.764 399.678 348.006 399.823 348.174 399.948C348.468 400.168 348.774 400.476 348.982 400.946C349.176 401.384 349.238 401.862 349.238 402.354C349.238 403.101 349.327 403.85 349.43 404.7L349.432 404.717C349.53 405.537 349.64 406.451 349.64 407.403C349.64 408.081 349.761 408.718 349.935 409.384C349.991 409.599 350.066 409.856 350.144 410.129L350.144 410.13C350.275 410.583 350.418 411.08 350.512 411.498C350.684 412.258 350.795 413.11 350.648 414.04C350.505 414.951 350.129 415.851 349.461 416.767C349.565 416.896 349.772 417.092 350.136 417.356C350.45 417.583 350.777 417.792 351.132 418.018L351.138 418.021L351.141 418.023L351.143 418.024C351.308 418.13 351.48 418.239 351.659 418.356C352.146 418.674 352.776 419.101 353.183 419.604C353.451 419.934 353.588 420.31 353.666 420.617C353.748 420.937 353.787 421.274 353.804 421.598C353.837 422.247 353.782 422.97 353.685 423.654ZM455.254 359.683C456.597 353.67 457.306 347.418 457.306 341C457.306 323.814 452.224 307.815 443.481 294.424C440.934 294.088 438.341 293.885 435.708 293.725C435.039 293.684 434.361 293.637 433.676 293.591C431.412 293.435 429.075 293.275 426.744 293.3C423.719 293.333 420.849 293.68 418.384 294.698C417.577 295.031 416.428 295.556 415.414 296.206C414.336 296.899 413.691 297.56 413.506 298.069C413.23 298.828 412.997 299.618 412.749 300.462C412.624 300.884 412.496 301.32 412.356 301.773C411.955 303.072 411.473 304.449 410.767 305.66C409.479 307.868 407.55 309.049 405.52 309.749C403.839 310.328 401.991 310.605 400.336 310.854C400.047 310.897 399.764 310.939 399.489 310.982C396.417 311.462 393.221 311.527 390.1 311.531C389.508 311.532 388.919 311.531 388.333 311.529C385.804 311.523 383.345 311.518 380.966 311.688C380.67 311.709 380.304 311.718 379.945 311.726C379.808 311.73 379.673 311.733 379.543 311.737C379.035 311.752 378.531 311.778 378.061 311.841C377.584 311.905 377.21 311.999 376.942 312.12C376.682 312.237 376.609 312.34 376.586 312.382C375.228 314.948 374.199 317.342 373.406 320.1C373.365 320.243 373.335 320.453 373.298 320.799L373.287 320.905C373.257 321.192 373.218 321.565 373.146 321.91C373.067 322.289 372.913 322.823 372.535 323.274C372.097 323.795 371.477 324.069 370.771 324.069C370.648 324.069 370.523 324.068 370.412 324.067C370.352 324.067 370.296 324.067 370.247 324.066L370.152 324.066C370.152 324.093 370.152 324.122 370.152 324.152C370.152 324.704 370.148 325.252 370.145 325.794C370.123 329.18 370.102 332.375 370.952 335.457C371.056 335.833 371.27 336.238 371.594 336.741C371.686 336.885 371.8 337.054 371.923 337.236C372.166 337.596 372.443 338.008 372.657 338.375C373.006 338.974 373.351 339.709 373.437 340.558C373.526 341.448 373.319 342.347 372.76 343.236C371.413 345.375 369.406 346.226 367.631 346.976C367.178 347.168 366.766 347.506 366.137 348.023L366.123 348.035C365.549 348.506 364.783 349.133 363.809 349.483C362.483 349.961 361.957 350.159 361.509 350.466C361.079 350.762 360.664 351.202 359.767 352.351C358.385 354.123 357.513 355.463 357.006 356.847C356.508 358.204 356.327 359.696 356.496 361.805C356.587 362.947 356.824 363.584 357.329 363.966C357.627 364.192 357.967 364.479 358.301 364.76L358.476 364.908C358.881 365.249 359.294 365.59 359.712 365.897C360.133 366.205 360.524 366.453 360.876 366.617C361.236 366.785 361.474 366.827 361.61 366.822C363.018 366.775 364.605 365.971 366.27 364.714C367.627 363.69 368.882 362.488 370.002 361.415C370.239 361.188 370.47 360.967 370.694 360.755C371.824 359.686 373.169 358.953 374.353 358.314L374.428 358.274C375.631 357.624 376.674 357.061 377.548 356.296C377.82 356.057 378.051 355.722 378.384 355.206L378.435 355.128C378.724 354.679 379.118 354.067 379.656 353.582C380.127 353.159 380.678 353.055 381.101 353.057C381.503 353.058 381.877 353.155 382.145 353.236C382.335 353.294 382.549 353.371 382.71 353.429C382.744 353.441 382.776 353.452 382.804 353.462C382.823 353.469 382.841 353.476 382.857 353.481C382.985 353.526 383.052 353.544 383.077 353.551C383.085 353.553 383.089 353.555 383.089 353.555C383.662 353.599 384.251 353.68 384.793 353.755C384.796 353.756 384.799 353.756 384.802 353.757C384.963 353.779 385.12 353.8 385.27 353.82C385.968 353.912 386.582 353.975 387.15 353.96C388.206 353.931 389.054 353.645 389.807 352.652C389.969 352.438 390.126 352.146 390.32 351.737C390.337 351.703 390.353 351.668 390.371 351.631C390.376 351.621 390.381 351.61 390.386 351.598C390.403 351.563 390.42 351.526 390.437 351.489C390.592 351.16 390.774 350.769 390.973 350.419C391.497 349.493 392.404 348.355 394.115 348.321C395.946 348.286 397.527 349.136 398.729 349.968C399.214 350.304 399.69 350.586 400.175 350.863C400.273 350.919 400.374 350.976 400.475 351.034L400.477 351.035C400.862 351.253 401.265 351.482 401.649 351.723C402.665 352.361 403.655 353.15 404.519 354.472C404.883 355.028 405.043 355.693 405.125 356.294C405.209 356.916 405.225 357.606 405.211 358.303C405.196 359.124 405.133 360.076 405.072 361.013L405.072 361.014L405.071 361.016C405.032 361.611 404.994 362.199 404.968 362.743C404.896 364.248 404.91 365.538 405.129 366.474C405.347 367.403 405.655 367.582 405.896 367.635C406.548 367.78 407.313 368.04 408.04 368.287L408.359 368.395C409.224 368.686 410.071 368.958 410.87 369.115C411.68 369.273 412.315 369.287 412.784 369.162C413.189 369.055 413.515 368.837 413.774 368.345C413.913 368.081 414.047 367.847 414.176 367.661C414.24 367.569 414.325 367.457 414.429 367.35C414.51 367.268 414.723 367.06 415.061 366.952C415.253 366.89 415.511 366.853 415.8 366.918C416.094 366.985 416.323 367.136 416.485 367.299C416.765 367.583 416.847 367.905 416.872 368.012C416.932 368.267 416.927 368.526 416.923 368.659C416.916 368.902 416.886 369.218 416.86 369.493L416.848 369.626C416.947 369.534 417.142 369.286 417.337 368.693C417.563 368.004 417.669 367.207 417.712 366.676C418.075 362.142 415.127 359.415 411.375 355.942L411.168 355.751C410.756 355.369 410.313 354.99 409.837 354.584C409.739 354.5 409.639 354.415 409.538 354.329C408.96 353.833 408.347 353.3 407.768 352.726C406.618 351.586 405.507 350.197 405.001 348.429C404.918 348.138 404.816 347.542 404.81 346.983C404.806 346.71 404.823 346.327 404.94 345.959C405.046 345.626 405.39 344.878 406.293 344.74C408.061 344.468 409.909 344.466 411.68 344.524C412.334 344.546 412.967 344.575 413.586 344.603C414.692 344.653 415.751 344.702 416.798 344.702C420.669 344.702 423.762 346.728 426.516 348.533C426.831 348.739 427.141 348.942 427.447 349.138C428.31 349.693 429.093 350.321 429.799 350.886C430.016 351.06 430.226 351.229 430.428 351.387C431.321 352.085 432.155 352.664 433.147 353.068C435.529 354.038 437.906 354.006 440.678 353.967C441.236 353.96 441.81 353.952 442.403 353.952C444.189 353.952 445.611 354.829 446.739 355.636C447.061 355.866 447.356 356.087 447.636 356.297C448.43 356.891 449.097 357.391 449.87 357.729C451.807 358.576 453.523 359.234 455.254 359.683ZM317.616 369.54C317.616 369.54 317.618 369.543 317.619 369.551C317.617 369.544 317.616 369.54 317.616 369.54ZM416.396 369.188C416.398 369.185 416.398 369.185 416.397 369.187L416.396 369.188ZM340.392 390.881C340.392 390.881 340.386 390.876 340.382 390.858C340.385 390.863 340.387 390.866 340.389 390.87C340.39 390.872 340.391 390.875 340.391 390.875C340.392 390.878 340.392 390.881 340.392 390.881Z" fill="url(#paint6_linear_40_84)"/>
<path d="M420.799 271.021C406.971 261.36 390.147 255.694 372 255.694C356.053 255.694 341.128 260.07 328.36 267.686C329.265 269.182 330.546 270.48 332.192 271.672C334.099 273.053 335.702 273.884 337.77 273.918C338.004 273.922 338.266 273.911 338.586 273.895L338.646 273.892C338.937 273.878 339.271 273.862 339.606 273.861C340.303 273.859 341.195 273.919 342.014 274.329C345.194 275.919 348.4 277.857 351.349 279.765C352.077 280.236 352.861 280.84 353.608 281.415L353.609 281.416C353.958 281.685 354.299 281.948 354.623 282.188C355.714 282.997 356.71 283.637 357.657 283.952C363.738 285.98 369.164 285.8 375.242 284.027C376.946 283.53 378.658 282.994 380.382 282.455C388.671 279.861 397.228 277.184 406.397 278.33C408.149 278.549 410.276 278.517 412.203 278.057C414.145 277.593 415.715 276.739 416.609 275.456C417.421 274.29 418.548 273.209 419.561 272.237L419.562 272.236C419.764 272.043 419.96 271.854 420.149 271.669C420.375 271.449 420.592 271.233 420.799 271.021Z" fill="url(#paint7_linear_40_84)"/>
<path d="M299.362 385.753C291.329 372.743 286.694 357.413 286.694 341C286.694 323.523 291.949 307.274 300.966 293.747C301.76 294.025 302.547 294.517 303.414 295.138C303.659 295.313 303.919 295.506 304.187 295.706C304.847 296.195 305.562 296.726 306.258 297.15C307.929 298.168 309.67 298.926 311.345 299.626C311.572 299.72 311.797 299.814 312.021 299.907C313.473 300.51 314.861 301.087 316.207 301.795C318.603 303.054 320.469 303.865 323.507 303.527C323.644 303.512 323.775 303.498 323.9 303.483L323.972 303.475C325.066 303.351 325.722 303.277 326.355 303.346C326.978 303.414 327.633 303.636 328.641 304.342C329.312 304.812 330.012 305.24 330.669 305.642L330.776 305.707C331.477 306.136 332.13 306.539 332.736 306.976C333.935 307.839 334.854 308.768 335.385 310.054L335.386 310.055C335.828 311.126 336.296 312.26 336.448 313.319C336.594 314.343 336.408 315.004 335.869 315.463C335.03 316.177 333.976 316.771 332.789 317.356C332.401 317.547 331.985 317.744 331.56 317.944L331.557 317.946L331.556 317.946C330.751 318.326 329.913 318.722 329.171 319.127C328.995 319.222 328.758 319.342 328.482 319.481C327.752 319.849 326.753 320.353 325.918 320.907C324.803 321.648 323.362 322.855 323.222 324.627C323.1 326.177 322.897 327.739 322.689 329.343L322.689 329.345C322.635 329.759 322.581 330.176 322.528 330.596C322.272 332.623 322.04 334.706 322.012 336.78C321.968 339.92 321.849 342.019 320.381 344.573C319.732 345.702 319.007 346.776 318.251 347.896C318.12 348.09 317.989 348.285 317.856 348.482C316.972 349.797 316.069 351.181 315.317 352.685C314.234 354.851 312.981 358.009 312.787 360.629C312.668 362.239 312.541 364.691 314.053 366.523C314.666 367.267 315.439 367.815 316.049 368.247L316.138 368.31C316.799 368.779 317.276 369.134 317.621 369.564C317.625 369.615 317.618 369.751 317.519 370.023C317.342 370.508 316.969 371.123 316.455 371.801C315.441 373.141 314.118 374.419 313.587 374.918C312.611 375.838 311.661 376.952 310.759 378.011L310.758 378.012L310.756 378.015C310.391 378.443 310.033 378.863 309.685 379.256C308.414 380.693 307.178 381.899 305.773 382.639C304.571 383.272 303.375 383.835 302.148 384.414L302.147 384.414C301.349 384.79 300.538 385.172 299.703 385.584C299.589 385.64 299.476 385.697 299.362 385.753Z" fill="url(#paint8_linear_40_84)"/>
<path d="M457.306 341C457.306 347.418 456.597 353.67 455.254 359.683C453.523 359.234 451.807 358.576 449.87 357.729C449.097 357.391 448.43 356.891 447.636 356.297C447.356 356.087 447.061 355.866 446.739 355.636C445.611 354.829 444.189 353.952 442.403 353.952C441.81 353.952 441.236 353.96 440.678 353.967C437.906 354.006 435.529 354.038 433.147 353.068C432.155 352.664 431.321 352.085 430.428 351.387C430.226 351.229 430.016 351.06 429.799 350.886C429.093 350.321 428.31 349.693 427.447 349.138C427.141 348.942 426.831 348.739 426.516 348.533C423.762 346.728 420.669 344.702 416.798 344.702C415.751 344.702 414.692 344.653 413.586 344.603C412.967 344.575 412.334 344.546 411.68 344.524C409.909 344.466 408.061 344.468 406.293 344.74C405.39 344.878 405.046 345.626 404.94 345.959C404.823 346.327 404.806 346.71 404.81 346.983C404.816 347.542 404.918 348.138 405.001 348.429C405.507 350.197 406.618 351.586 407.768 352.726C408.347 353.3 408.96 353.833 409.538 354.329C409.639 354.415 409.739 354.5 409.837 354.584C410.313 354.99 410.756 355.369 411.168 355.751L411.375 355.942C415.127 359.415 418.075 362.142 417.712 366.676C417.669 367.207 417.563 368.004 417.337 368.693C417.142 369.286 416.947 369.534 416.848 369.626L416.86 369.493C416.886 369.218 416.916 368.902 416.923 368.659C416.927 368.526 416.932 368.267 416.872 368.012C416.847 367.905 416.765 367.583 416.485 367.299C416.323 367.136 416.094 366.985 415.8 366.918C415.511 366.853 415.253 366.89 415.061 366.952C414.723 367.06 414.51 367.268 414.429 367.35C414.325 367.457 414.24 367.569 414.176 367.661C414.047 367.847 413.913 368.081 413.774 368.345C413.515 368.837 413.189 369.055 412.784 369.162C412.315 369.287 411.68 369.273 410.87 369.115C410.071 368.958 409.224 368.686 408.359 368.395L408.04 368.287C407.313 368.04 406.548 367.78 405.896 367.635C405.655 367.582 405.347 367.403 405.129 366.474C404.91 365.538 404.896 364.248 404.968 362.743C404.994 362.199 405.032 361.611 405.071 361.016L405.072 361.014L405.072 361.013C405.133 360.076 405.196 359.124 405.211 358.303C405.225 357.606 405.209 356.916 405.125 356.294C405.043 355.693 404.883 355.028 404.519 354.472C403.655 353.15 402.665 352.361 401.649 351.723C401.265 351.482 400.862 351.253 400.477 351.035L400.475 351.034C400.374 350.976 400.273 350.919 400.175 350.863C399.69 350.586 399.214 350.304 398.729 349.968C397.527 349.136 395.946 348.286 394.115 348.321C392.404 348.355 391.497 349.493 390.973 350.419C390.774 350.769 390.592 351.16 390.437 351.489L390.386 351.598L390.371 351.631C390.353 351.668 390.337 351.703 390.32 351.737C390.126 352.146 389.969 352.438 389.807 352.652C389.054 353.645 388.206 353.931 387.15 353.96C386.582 353.975 385.968 353.912 385.27 353.82C385.12 353.8 384.963 353.779 384.802 353.757L384.793 353.755C384.251 353.68 383.662 353.599 383.089 353.555C383.089 353.555 383.085 353.553 383.077 353.551C383.052 353.544 382.985 353.526 382.857 353.481L382.804 353.462L382.71 353.429C382.549 353.371 382.335 353.294 382.145 353.236C381.877 353.155 381.503 353.058 381.101 353.057C380.678 353.055 380.127 353.159 379.656 353.582C379.118 354.067 378.724 354.679 378.435 355.128L378.384 355.206C378.051 355.722 377.82 356.057 377.548 356.296C376.674 357.061 375.631 357.624 374.428 358.274L374.353 358.314C373.169 358.953 371.824 359.686 370.694 360.755C370.47 360.967 370.239 361.188 370.002 361.415C368.882 362.488 367.627 363.69 366.27 364.714C364.605 365.971 363.018 366.775 361.61 366.822C361.474 366.827 361.236 366.785 360.876 366.617C360.524 366.453 360.133 366.205 359.712 365.897C359.294 365.59 358.881 365.249 358.476 364.908L358.301 364.76C357.967 364.479 357.627 364.192 357.329 363.966C356.824 363.584 356.587 362.947 356.496 361.805C356.327 359.696 356.508 358.204 357.006 356.847C357.513 355.463 358.385 354.123 359.767 352.351C360.664 351.202 361.079 350.762 361.509 350.466C361.957 350.159 362.483 349.961 363.809 349.483C364.783 349.133 365.549 348.506 366.123 348.035L366.137 348.023C366.766 347.506 367.178 347.168 367.631 346.976C369.406 346.226 371.413 345.375 372.76 343.236C373.319 342.347 373.526 341.448 373.437 340.558C373.351 339.709 373.006 338.974 372.657 338.375C372.443 338.008 372.166 337.596 371.923 337.236C371.8 337.054 371.686 336.885 371.594 336.741C371.27 336.238 371.056 335.833 370.952 335.457C370.102 332.375 370.123 329.18 370.145 325.794C370.148 325.252 370.152 324.704 370.152 324.152C370.152 324.122 370.152 324.093 370.152 324.066L370.247 324.066C370.296 324.067 370.352 324.067 370.412 324.067C370.523 324.068 370.648 324.069 370.771 324.069C371.477 324.069 372.097 323.795 372.535 323.274C372.913 322.823 373.067 322.289 373.146 321.91C373.218 321.565 373.257 321.192 373.287 320.905L373.298 320.799C373.335 320.453 373.365 320.243 373.406 320.1C374.199 317.342 375.228 314.948 376.586 312.382C376.609 312.34 376.682 312.237 376.942 312.12C377.21 311.999 377.584 311.905 378.061 311.841C378.531 311.778 379.035 311.752 379.543 311.737C379.673 311.733 379.808 311.73 379.945 311.726C380.304 311.718 380.67 311.709 380.966 311.688C383.345 311.518 385.804 311.523 388.333 311.529C388.919 311.531 389.508 311.532 390.1 311.531C393.221 311.527 396.417 311.462 399.489 310.982C399.764 310.939 400.047 310.897 400.336 310.854C401.991 310.605 403.839 310.328 405.52 309.749C407.55 309.049 409.479 307.868 410.767 305.66C411.473 304.449 411.955 303.072 412.356 301.773C412.496 301.32 412.624 300.884 412.749 300.462C412.997 299.618 413.23 298.828 413.506 298.069C413.691 297.56 414.336 296.899 415.414 296.206C416.428 295.556 417.577 295.031 418.384 294.698C420.849 293.68 423.719 293.333 426.744 293.3C429.075 293.275 431.412 293.435 433.676 293.591C434.361 293.637 435.039 293.684 435.708 293.725C438.341 293.885 440.934 294.088 443.481 294.424C452.224 307.815 457.306 323.814 457.306 341Z" fill="url(#paint9_linear_40_84)"/>
<path d="M353.578 424.312C353.618 424.094 353.654 423.874 353.685 423.654C353.782 422.97 353.837 422.247 353.804 421.598C353.787 421.274 353.748 420.937 353.666 420.617C353.588 420.31 353.451 419.934 353.183 419.604C352.776 419.101 352.146 418.674 351.659 418.356C351.48 418.239 351.308 418.13 351.143 418.024L351.141 418.023L351.138 418.021L351.132 418.018C350.777 417.792 350.45 417.583 350.136 417.356C349.772 417.092 349.565 416.896 349.461 416.767C350.129 415.851 350.505 414.951 350.648 414.04C350.795 413.11 350.684 412.258 350.512 411.498C350.418 411.08 350.275 410.583 350.144 410.13L350.144 410.129C350.066 409.856 349.991 409.599 349.935 409.384C349.761 408.718 349.64 408.081 349.64 407.403C349.64 406.451 349.53 405.537 349.432 404.717L349.43 404.7C349.327 403.85 349.238 403.101 349.238 402.354C349.238 401.862 349.176 401.384 348.982 400.946C348.774 400.476 348.468 400.168 348.174 399.948C348.006 399.823 347.764 399.678 347.618 399.591C347.576 399.566 347.542 399.545 347.52 399.531C347.41 399.463 347.309 399.393 347.209 399.309C347.224 399.295 347.238 399.281 347.252 399.267C347.261 399.258 347.269 399.249 347.277 399.241L347.292 399.223C347.785 398.666 347.732 397.815 347.174 397.322C347.107 397.263 347.041 397.204 346.974 397.144C346.868 396.996 346.732 396.87 346.576 396.776C345.876 396.117 345.201 395.417 344.5 394.69L344.497 394.687C344.311 394.494 344.123 394.299 343.932 394.102C342.85 392.988 341.694 391.837 340.379 390.847C340.37 390.798 340.365 390.691 340.4 390.486C340.477 390.035 340.692 389.521 340.902 389.043C341.171 388.431 341.902 387.442 342.84 386.578C343.296 386.158 343.762 385.804 344.192 385.557C344.639 385.301 344.961 385.209 345.151 385.198C346.224 385.139 347.295 384.847 348.218 384.592L348.309 384.567C349.245 384.308 350.046 384.087 350.818 384.009C351.765 383.915 352.687 383.648 353.511 383.385C353.746 383.309 353.971 383.236 354.188 383.164C354.776 382.971 355.311 382.795 355.859 382.658C357.833 382.164 359.289 382.183 360.179 383.184C361.542 384.718 363.061 385.777 364.558 386.695C365.078 387.014 365.579 387.308 366.07 387.595C367.041 388.164 367.971 388.709 368.923 389.379C369.209 389.58 369.483 389.775 369.75 389.965C372.308 391.785 374.146 393.093 377.958 393.823C379.155 394.052 380.335 394.114 381.41 394.169L381.445 394.171C382.534 394.227 383.513 394.277 384.472 394.451C385.286 394.599 386.036 394.844 386.879 395.12C387.118 395.199 387.364 395.279 387.621 395.36C388.737 395.714 389.997 396.059 391.416 396.059C391.851 396.059 392.384 396.016 392.89 395.976C392.979 395.968 393.067 395.961 393.153 395.955C393.77 395.906 394.383 395.866 394.957 395.878C395.541 395.891 396 395.957 396.329 396.074C396.64 396.184 396.748 396.307 396.799 396.401C397.075 396.913 397.282 397.447 397.503 398.031L397.54 398.13C397.74 398.658 397.968 399.265 398.266 399.805C398.596 400.403 399.053 401.007 399.757 401.447C400.466 401.889 401.305 402.092 402.275 402.092C404.118 402.092 405.964 402.19 407.85 402.291L407.874 402.292C409.74 402.392 411.646 402.494 413.558 402.494C416.057 402.494 418.53 402.07 420.869 401.669L421.223 401.608C423.711 401.183 426.052 400.807 428.371 400.884C429.711 400.929 430.279 401.148 430.542 401.374C430.708 401.517 430.921 401.815 430.984 402.628C415.663 417.295 394.884 426.306 372 426.306C365.675 426.306 359.511 425.618 353.578 424.312Z" fill="url(#paint10_linear_40_84)"/>
</g>
<path d="M357.787 215.97C358.283 213.513 360.789 211.934 362.591 211.061C364.494 210.139 366.393 209.71 368.405 209.231C371.656 208.457 375.054 207.82 378.366 207.576C380.775 207.399 383.392 207.229 385.779 207.724C388.776 208.346 391.745 209.589 394.54 210.978C398.286 212.84 401.212 215.613 404.054 218.965" stroke="#00B2FF" stroke-width="9" stroke-linecap="round"/>
<path d="M342.915 208.231C344.353 201.926 348.904 197.855 353.506 194.663C358.153 191.439 363.277 189 368.552 187.615C374.313 186.101 380.361 185.79 386.257 185.957C390.978 186.091 395.746 187.155 400.033 189.472C403.95 191.59 407.986 194.142 411.329 197.34C413.771 199.676 416.263 202.003 418.099 205.025C418.91 206.361 419.576 207.887 420.578 209.05" stroke="#00B2FF" stroke-width="9" stroke-linecap="round"/>
<path d="M326.391 193.686C327.326 192.16 328.123 190.526 329.103 189.034C330.846 186.377 332.975 184.234 335.398 182.398C338.917 179.731 342.9 177.836 346.73 175.824C352.244 172.929 357.893 170.623 363.595 168.264C367.767 166.537 371.97 164.652 376.31 163.54C379.496 162.725 382.675 162.784 385.922 162.784C390.025 162.784 393.951 163.155 398.001 163.905C401.505 164.554 405.071 165.111 408.531 166.022C411.085 166.695 413.588 167.928 415.981 169.118C418.336 170.288 420.402 172.242 421.946 174.561C424.543 178.459 427.181 182.314 429.797 186.196C432.296 189.905 434.619 193.78 437.074 197.528C438.387 199.532 439.338 201.917 440.407 204.093" stroke="#00B2FF" stroke-width="9" stroke-linecap="round"/>
<path d="M381.577 228.879C381.293 230.049 380.983 231.624 381.351 232.815C381.527 233.384 382.08 233.298 382.582 233.298C383.9 233.298 384.699 231.302 383.916 230.352C383.248 229.54 382.739 228.845 381.698 229.247C380.354 229.767 378.353 229.813 377.903 231.334C377.457 232.835 377.328 234.034 379.046 234.804C379.788 235.136 381.082 235.895 381.889 235.213C383.561 233.8 384.615 231.339 383.76 229.321" stroke="#00B2FF" stroke-width="9" stroke-linecap="round"/>
<path d="M322 144C331.853 157.601 346.348 168.266 358.736 179.524C370.741 190.433 383.896 200.026 395.853 210.95C403.395 217.841 410.93 224.918 418.101 232.189C421.062 235.192 424.687 238.554 427 242" stroke="#FF3D00" stroke-width="9" stroke-linecap="round"/>
</g>
<defs>
<radialGradient id="paint0_radial_40_84" cx="0" cy="0" r="1" gradientUnits="userSpaceOnUse" gradientTransform="translate(84 532.5) rotate(-75.2755) scale(535.072 903.367)">
<stop offset="0.0989583" stop-color="#FFA800" stop-opacity="0"/>
<stop offset="0.583333" stop-color="#FF3D00"/>
</radialGradient>
<linearGradient id="paint1_linear_40_84" x1="219.129" y1="44.352" x2="107.514" y2="677.834" gradientUnits="userSpaceOnUse">
<stop stop-color="#FFA800"/>
<stop offset="1" stop-color="#FF3D00"/>
</linearGradient>
<linearGradient id="paint2_linear_40_84" x1="184.723" y1="142.26" x2="184.723" y2="173.915" gradientUnits="userSpaceOnUse">
<stop stop-color="#3D3D3D"/>
<stop offset="1"/>
</linearGradient>
<linearGradient id="paint3_linear_40_84" x1="247.073" y1="153.246" x2="247.073" y2="184.901" gradientUnits="userSpaceOnUse">
<stop stop-color="#3D3D3D"/>
<stop offset="1"/>
</linearGradient>
<linearGradient id="paint4_linear_40_84" x1="372" y1="256" x2="372" y2="426" gradientUnits="userSpaceOnUse">
<stop stop-color="#00B2FF"/>
<stop offset="1" stop-color="#0066FF"/>
</linearGradient>
<linearGradient id="paint5_linear_40_84" x1="372" y1="256" x2="372" y2="426" gradientUnits="userSpaceOnUse">
<stop stop-color="#00B2FF"/>
<stop offset="1" stop-color="#0066FF"/>
</linearGradient>
<linearGradient id="paint6_linear_40_84" x1="372" y1="253" x2="372" y2="429" gradientUnits="userSpaceOnUse">
<stop stop-color="white"/>
<stop offset="1" stop-color="white" stop-opacity="0.68"/>
</linearGradient>
<linearGradient id="paint7_linear_40_84" x1="372" y1="253" x2="372" y2="429" gradientUnits="userSpaceOnUse">
<stop stop-color="white"/>
<stop offset="1" stop-color="white" stop-opacity="0.68"/>
</linearGradient>
<linearGradient id="paint8_linear_40_84" x1="372" y1="253" x2="372" y2="429" gradientUnits="userSpaceOnUse">
<stop stop-color="white"/>
<stop offset="1" stop-color="white" stop-opacity="0.68"/>
</linearGradient>
<linearGradient id="paint9_linear_40_84" x1="372" y1="253" x2="372" y2="429" gradientUnits="userSpaceOnUse">
<stop stop-color="white"/>
<stop offset="1" stop-color="white" stop-opacity="0.68"/>
</linearGradient>
<linearGradient id="paint10_linear_40_84" x1="372" y1="253" x2="372" y2="429" gradientUnits="userSpaceOnUse">
<stop stop-color="white"/>
<stop offset="1" stop-color="white" stop-opacity="0.68"/>
</linearGradient>
<clipPath id="clip0_40_84">
<rect width="500" height="500" fill="white"/>
</clipPath>
</defs>
</svg>
