<svg width="500" height="500" viewBox="0 0 500 500" fill="none" xmlns="http://www.w3.org/2000/svg">
<g clip-path="url(#clip0_40_173)">
<rect x="38.5" y="180.5" width="268" height="268" rx="134" fill="url(#paint0_linear_40_173)" stroke="white" stroke-width="5"/>
<mask id="mask0_40_173" style="mask-type:alpha" maskUnits="userSpaceOnUse" x="41" y="183" width="263" height="263">
<rect x="41" y="183" width="263" height="263" rx="131.5" fill="url(#paint1_linear_40_173)"/>
</mask>
<g mask="url(#mask0_40_173)">
<path fill-rule="evenodd" clip-rule="evenodd" d="M172.5 178.359C97.3113 178.359 36.3588 239.311 36.3588 314.5C36.3588 389.689 97.3113 450.641 172.5 450.641C247.689 450.641 308.641 389.689 308.641 314.5C308.641 239.311 247.689 178.359 172.5 178.359ZM40.5264 314.5C40.5264 339.892 47.6973 363.609 60.1244 383.736C60.3004 383.648 60.4763 383.561 60.6521 383.474C61.9436 382.837 63.1984 382.246 64.4326 381.664L64.4346 381.663C66.3332 380.768 68.183 379.897 70.0423 378.918C72.2166 377.774 74.1288 375.907 76.0947 373.685C76.6337 373.076 77.1866 372.427 77.7515 371.764L77.7554 371.759L77.7564 371.758C79.1519 370.12 80.621 368.396 82.1322 366.974C82.9535 366.201 84.9999 364.224 86.569 362.151C87.3636 361.102 87.9406 360.15 88.2147 359.4C88.3684 358.979 88.3786 358.77 88.3723 358.691C87.8392 358.025 87.1008 357.476 86.0778 356.75L85.9411 356.653C84.9973 355.984 83.8011 355.136 82.8521 353.986C80.5127 351.152 80.7101 347.358 80.8947 344.867C81.1948 340.814 83.1324 335.928 84.8076 332.578C85.9711 330.251 87.3687 328.11 88.7363 326.075C88.941 325.77 89.1447 325.468 89.347 325.168C90.516 323.436 91.6379 321.774 92.6423 320.027C94.914 316.076 95.0976 312.829 95.1651 307.971C95.2096 304.762 95.5678 301.54 95.9642 298.405C96.0464 297.754 96.1301 297.109 96.2131 296.469L96.2135 296.466C96.5353 293.984 96.8485 291.569 97.0379 289.17C97.2543 286.429 99.4831 284.562 101.209 283.415C102.5 282.557 104.046 281.778 105.175 281.209C105.602 280.994 105.969 280.809 106.24 280.661C107.388 280.035 108.685 279.423 109.93 278.835L109.932 278.834L109.936 278.832C110.595 278.521 111.238 278.217 111.838 277.921C113.675 277.016 115.305 276.098 116.603 274.993C117.437 274.282 117.724 273.26 117.498 271.675C117.264 270.037 116.54 268.283 115.856 266.627L115.855 266.625C115.033 264.635 113.611 263.198 111.756 261.862C110.819 261.187 109.809 260.564 108.723 259.9L108.558 259.799C107.542 259.177 106.459 258.515 105.421 257.788C103.861 256.696 102.848 256.353 101.884 256.247C100.906 256.14 99.89 256.255 98.1979 256.447L98.0866 256.46C97.893 256.481 97.6907 256.504 97.4788 256.528C92.7778 257.05 89.8923 255.796 86.1856 253.847C84.103 252.752 81.9554 251.86 79.7083 250.927C79.3622 250.783 79.0137 250.638 78.6627 250.492C76.0722 249.409 73.3783 248.237 70.7926 246.661C69.7169 246.006 68.6105 245.185 67.5899 244.427C67.1741 244.119 66.7723 243.82 66.3928 243.548C65.0523 242.588 63.834 241.827 62.6063 241.396C48.6569 262.324 40.5264 287.463 40.5264 314.5ZM247.994 206.238C226.603 191.293 200.575 182.526 172.5 182.526C147.829 182.526 124.739 189.296 104.987 201.079C106.386 203.393 108.368 205.401 110.915 207.245C113.865 209.382 116.344 210.668 119.544 210.721C119.906 210.727 120.312 210.709 120.807 210.685L120.899 210.68C121.35 210.658 121.867 210.633 122.385 210.631C123.464 210.629 124.842 210.722 126.11 211.355C131.03 213.816 135.99 216.814 140.551 219.766C141.677 220.494 142.89 221.428 144.046 222.319L144.047 222.32C144.588 222.736 145.115 223.142 145.616 223.514C147.305 224.767 148.846 225.756 150.31 226.244C159.719 229.38 168.112 229.102 177.516 226.359C180.152 225.59 182.801 224.761 185.468 223.927C198.292 219.915 211.529 215.773 225.713 217.546C228.425 217.885 231.715 217.835 234.696 217.124C237.701 216.406 240.129 215.084 241.512 213.099C242.77 211.295 244.512 209.624 246.08 208.119L246.082 208.118C246.393 207.819 246.698 207.527 246.99 207.241C247.34 206.9 247.675 206.567 247.994 206.238ZM101.442 203.27C103.155 206.089 105.534 208.495 108.47 210.621C111.669 212.937 115.001 214.813 119.475 214.888C119.994 214.897 120.533 214.871 121.011 214.848L121.079 214.844C121.552 214.821 121.978 214.8 122.395 214.799C123.3 214.797 123.874 214.897 124.246 215.083C128.973 217.447 133.789 220.354 138.287 223.265C139.274 223.903 140.243 224.651 141.31 225.474C141.884 225.916 142.486 226.381 143.133 226.861C144.869 228.149 146.859 229.487 148.992 230.198C159.331 233.644 168.602 233.3 178.683 230.36C181.489 229.541 184.252 228.68 186.989 227.827C199.787 223.837 211.993 220.031 225.196 221.682C228.307 222.07 232.11 222.026 235.664 221.177C239.192 220.335 242.736 218.632 244.932 215.482C245.93 214.049 247.306 212.726 248.869 211.222C249.205 210.899 249.549 210.567 249.9 210.225C250.396 209.741 250.905 209.235 251.406 208.703C262.367 216.892 272.013 226.743 279.97 237.885C277.085 237.588 274.195 237.378 271.313 237.202C270.344 237.143 269.339 237.074 268.308 237.004C264.777 236.761 260.935 236.498 257.147 236.538C252.235 236.591 247.188 237.15 242.669 239.015C241.321 239.572 239.283 240.494 237.413 241.695C235.645 242.83 233.585 244.486 232.795 246.659C232.324 247.955 231.9 249.392 231.494 250.77L231.493 250.773C231.31 251.394 231.13 252.003 230.951 252.582C230.348 254.536 229.716 256.286 228.875 257.728C227.534 260.026 225.518 261.345 222.999 262.213C220.793 262.973 218.37 263.339 215.795 263.728C215.329 263.798 214.859 263.869 214.383 263.943C209.974 264.632 205.306 264.736 200.497 264.743C199.617 264.744 198.731 264.742 197.841 264.74C193.919 264.73 189.924 264.72 186.074 264.995C185.719 265.02 185.309 265.03 184.805 265.042C184.572 265.048 184.32 265.054 184.043 265.063C183.222 265.087 182.268 265.132 181.324 265.258C180.392 265.383 179.366 265.6 178.432 266.021C177.488 266.447 176.513 267.141 175.912 268.276C173.706 272.442 171.991 276.416 170.67 281.016C170.491 281.637 170.417 282.313 170.364 282.805L170.347 282.968C170.296 283.449 170.259 283.802 170.194 284.113L170.188 284.137L170.16 284.137C169.775 284.134 169.371 284.131 169.043 284.146C168.592 284.167 167.888 284.225 167.221 284.581C166.422 285.007 165.954 285.695 165.719 286.432C165.515 287.07 165.473 287.775 165.473 288.435C165.473 289.236 165.467 290.049 165.46 290.872C165.421 296.073 165.379 301.661 166.861 307.033C167.194 308.239 167.807 309.297 168.367 310.167C168.621 310.56 168.846 310.893 169.054 311.2C169.366 311.66 169.64 312.065 169.915 312.537C170.33 313.25 170.531 313.782 170.576 314.234C170.615 314.622 170.556 315.092 170.149 315.739C168.845 317.808 166.948 318.71 164.118 319.907C162.839 320.448 161.766 321.334 160.952 322.007L160.762 322.163C159.83 322.929 159.156 323.436 158.417 323.703L158.179 323.788C156.427 324.418 155.091 324.899 153.91 325.709C152.65 326.575 151.657 327.746 150.29 329.497C148.083 332.325 146.405 334.814 145.39 337.581C144.36 340.39 144.065 343.334 144.359 347.019C144.519 349.014 144.997 351.62 147.288 353.353C147.652 353.629 148.078 353.988 148.599 354.428L148.895 354.677C149.529 355.209 150.259 355.815 151.025 356.377C151.788 356.936 152.64 357.493 153.53 357.908C154.407 358.317 155.452 358.651 156.565 358.614C160.075 358.497 163.4 356.587 166.147 354.513C168.461 352.766 170.616 350.7 172.348 349.04L172.351 349.038L172.352 349.036C172.701 348.702 173.032 348.385 173.344 348.09C174.635 346.869 176.235 345.971 178.121 344.953L178.384 344.811C180.129 343.87 182.114 342.799 183.827 341.3C184.74 340.501 185.383 339.505 185.851 338.78L185.878 338.739C186.271 338.131 186.554 337.699 186.832 337.374C186.877 337.386 186.925 337.4 186.979 337.417C187.174 337.476 187.342 337.537 187.547 337.61C187.66 337.651 187.784 337.695 187.93 337.746C188.235 337.852 188.769 338.035 189.312 338.076C190.073 338.135 190.827 338.239 191.649 338.352L191.654 338.353C191.923 338.39 192.199 338.428 192.484 338.465C193.596 338.612 194.821 338.749 196.05 338.716C198.632 338.646 201.266 337.816 203.368 335.046C203.898 334.347 204.294 333.557 204.605 332.904C204.69 332.726 204.769 332.558 204.843 332.399C205.069 331.918 205.258 331.514 205.478 331.126C206.032 330.149 206.37 330.002 206.796 329.994C208.299 329.964 209.846 330.67 211.479 331.801C212.379 332.424 213.238 332.93 214.021 333.377C214.191 333.475 214.356 333.568 214.516 333.659L214.543 333.674C215.126 334.005 215.644 334.299 216.152 334.618C217.393 335.397 218.411 336.231 219.321 337.623C219.385 337.721 219.522 338.032 219.616 338.72C219.704 339.375 219.732 340.201 219.713 341.189C219.69 342.401 219.606 343.661 219.517 345.003L219.516 345.004C219.454 345.94 219.389 346.914 219.34 347.94C219.229 350.277 219.211 352.792 219.695 354.86C220.182 356.937 221.35 359.178 224.035 359.775C224.805 359.946 225.744 360.264 226.909 360.659C227.074 360.715 227.244 360.772 227.419 360.831C228.753 361.281 230.298 361.784 231.832 362.085C233.35 362.382 235.055 362.524 236.665 362.097C237.133 361.972 237.583 361.802 238.011 361.583C238.296 362.064 238.708 362.406 239.097 362.619C239.679 362.937 240.298 363.034 240.729 363.068C241.585 363.135 242.566 363.009 243.208 362.776C245.229 362.041 246.154 359.997 246.598 358.642C247.095 357.129 247.296 355.524 247.373 354.554C248.099 345.481 242.08 339.934 236.701 334.977C236.441 334.737 236.183 334.499 235.927 334.262C235.222 333.609 234.46 332.959 233.723 332.329C233.576 332.204 233.429 332.079 233.285 331.955C232.398 331.195 231.549 330.454 230.769 329.681C229.201 328.126 228.058 326.584 227.562 324.849C227.56 324.84 227.551 324.803 227.538 324.736C227.522 324.656 227.504 324.554 227.487 324.436C227.478 324.373 227.47 324.308 227.462 324.243C229.443 324.042 231.553 324.045 233.751 324.117C234.644 324.147 235.568 324.189 236.503 324.231C238.283 324.312 240.1 324.394 241.805 324.394C246.479 324.394 250.191 326.807 254.619 329.685L254.621 329.687C255.081 329.985 255.549 330.29 256.026 330.596C257.161 331.326 258.137 332.107 259.188 332.949C259.554 333.243 259.93 333.544 260.325 333.853C261.801 335.006 263.452 336.185 265.526 337.03C270.067 338.88 274.727 338.802 279.025 338.731C279.837 338.718 280.636 338.705 281.418 338.705C282.786 338.705 284.062 339.359 285.7 340.532C286.021 340.762 286.365 341.021 286.73 341.295C288.042 342.28 289.617 343.463 291.298 344.199C294.455 345.58 297.345 346.689 300.325 347.456C294.521 370.034 282.893 390.276 267.137 406.483C266.812 405.833 266.372 405.247 265.787 404.744C264.223 403.397 262.061 403.053 259.849 402.98C255.777 402.844 251.755 403.506 247.949 404.157L247.515 404.231C243.802 404.867 240.294 405.467 236.793 405.467C233.953 405.467 231.103 405.315 228.185 405.159L228.166 405.158C225.273 405.003 222.312 404.845 219.337 404.845C218.425 404.845 217.938 404.659 217.65 404.48C217.356 404.296 217.082 404.001 216.785 403.463C216.472 402.894 216.213 402.21 215.861 401.279L215.852 401.256C215.516 400.366 215.109 399.299 214.535 398.233C213.83 396.923 212.678 396.182 211.535 395.776C210.421 395.379 209.204 395.257 208.105 395.234C206.991 395.21 205.864 395.288 204.901 395.363C204.744 395.375 204.593 395.387 204.448 395.399C203.65 395.462 203.029 395.512 202.538 395.512C201.006 395.512 199.558 395.143 197.925 394.626C197.766 394.576 197.605 394.524 197.44 394.47C197.286 394.42 197.129 394.368 196.97 394.316L196.957 394.312C195.618 393.872 194.108 393.377 192.54 393.091C190.788 392.773 189.039 392.684 187.434 392.602L187.271 392.594C185.577 392.507 184.029 392.42 182.501 392.127C177.517 391.173 175.335 389.624 171.412 386.838C171.008 386.551 170.585 386.251 170.138 385.937C168.527 384.803 166.826 383.805 165.241 382.875L165.237 382.873L165.234 382.872C164.515 382.45 163.82 382.042 163.167 381.641C160.993 380.308 159.04 378.92 157.327 376.993C154.182 373.454 149.553 374.145 146.519 374.904C145.51 375.156 144.47 375.498 143.52 375.811L143.518 375.812C143.21 375.913 142.913 376.011 142.628 376.102C141.395 376.496 140.319 376.791 139.316 376.891C137.756 377.047 136.201 377.478 134.854 377.851L134.598 377.922C133.112 378.333 131.876 378.652 130.731 378.716C129.534 378.783 128.385 379.256 127.406 379.817C126.403 380.393 125.433 381.146 124.563 381.948C122.861 383.516 121.3 385.498 120.575 387.147L120.568 387.163C120.265 387.851 119.721 389.088 119.504 390.358C119.295 391.586 119.282 393.601 121.024 394.908C122.799 396.239 124.413 397.831 126.086 399.555C126.362 399.839 126.639 400.127 126.92 400.418C127.894 401.428 128.901 402.474 129.953 403.483C129.936 403.75 129.92 404.063 129.921 404.38C129.924 405.046 129.983 406.453 130.998 407.469C131.517 407.987 132.012 408.332 132.418 408.585C132.544 408.664 132.688 408.75 132.797 408.815L132.852 408.848L132.907 408.881C132.993 408.933 133.051 408.97 133.092 408.997C133.104 409.072 133.119 409.205 133.119 409.417C133.119 410.838 133.285 412.218 133.435 413.468L133.445 413.545C133.602 414.855 133.741 416.035 133.741 417.229C133.741 418.78 134.019 420.151 134.333 421.349C134.486 421.934 134.624 422.406 134.75 422.838C134.914 423.399 135.059 423.894 135.192 424.482C135.396 425.386 135.464 426.13 135.351 426.849C135.241 427.55 134.937 428.363 134.192 429.356C133.734 429.967 133.424 430.683 133.377 431.486C133.329 432.282 133.551 432.983 133.861 433.553C134.434 434.607 135.427 435.419 136.229 436.001C136.821 436.431 137.508 436.868 138.107 437.249C138.34 437.397 138.559 437.537 138.755 437.665C139.484 438.14 139.893 438.455 140.085 438.655C140.089 438.667 140.093 438.683 140.098 438.7C140.135 438.845 140.171 439.075 140.187 439.401C140.22 440.052 140.167 440.888 140.04 441.787C140.009 442.001 139.976 442.215 139.939 442.426C107.724 434.252 80.2352 414.228 62.383 387.267L62.4951 387.212C63.64 386.648 64.8411 386.081 66.06 385.506C68.0424 384.57 70.0721 383.612 71.9833 382.606C74.8622 381.091 77.1888 378.737 79.216 376.446C79.8786 375.697 80.5007 374.967 81.1024 374.26L81.1033 374.259C82.4268 372.705 83.6518 371.266 84.9886 370.008C85.8377 369.209 88.0996 367.034 89.8917 364.667C90.7777 363.497 91.6444 362.157 92.1292 360.83C92.5915 359.565 92.903 357.727 91.7037 356.185C90.7443 354.952 89.5009 354.069 88.5268 353.377L88.4906 353.351C87.424 352.594 86.6453 352.035 86.0662 351.333C84.9279 349.954 84.8523 347.855 85.0509 345.174C85.2898 341.949 86.9291 337.654 88.5352 334.442C89.5696 332.373 90.836 330.422 92.1954 328.399C92.2486 328.32 92.302 328.241 92.3555 328.161C92.4265 328.056 92.4978 327.95 92.5693 327.844L92.7869 327.522C93.953 325.795 95.1695 323.993 96.2552 322.105C99.0977 317.161 99.2636 312.972 99.3322 308.029C99.3733 305.069 99.7051 302.042 100.099 298.928C100.177 298.308 100.258 297.683 100.34 297.054C100.663 294.561 100.994 292.012 101.193 289.498C101.241 288.88 101.855 287.99 103.515 286.887C104.593 286.17 105.697 285.615 106.746 285.089C107.259 284.831 107.759 284.58 108.236 284.319C109.291 283.744 110.375 283.233 111.533 282.687L111.534 282.687C112.221 282.364 112.933 282.028 113.681 281.659C115.593 280.717 117.602 279.616 119.305 278.165C121.668 276.153 121.954 273.398 121.624 271.087C121.315 268.92 120.417 266.751 119.784 265.22L119.707 265.034C118.473 262.047 116.374 260.052 114.192 258.48C113.11 257.701 111.971 257.001 110.898 256.345L110.767 256.264C109.722 255.625 108.74 255.024 107.811 254.374C105.842 252.996 104.174 252.305 102.337 252.104C100.861 251.943 99.3317 252.12 97.7258 252.305C97.4917 252.332 97.256 252.359 97.0185 252.386C93.5634 252.77 91.5865 251.978 88.125 250.158C85.8622 248.968 83.524 247.998 81.2887 247.07L81.2734 247.064C80.9361 246.924 80.6011 246.785 80.2691 246.646C77.6933 245.57 75.2546 244.5 72.9613 243.102C72.0533 242.549 71.2013 241.916 70.2577 241.215C69.8054 240.879 69.3312 240.527 68.8206 240.161C67.6896 239.35 66.4264 238.512 65.0307 237.883C74.8359 224.154 87.2062 212.383 101.442 203.27ZM144.166 442.37C144.118 442.711 144.062 443.052 144 443.388C153.178 445.409 162.715 446.474 172.5 446.474C207.903 446.474 240.05 432.533 263.751 409.843C263.655 408.585 263.325 408.124 263.068 407.902C262.662 407.552 261.782 407.214 259.71 407.145C256.122 407.025 252.499 407.607 248.651 408.265L248.103 408.359C244.485 408.979 240.658 409.635 236.793 409.635C233.835 409.635 230.886 409.477 227.999 409.323L227.962 409.321C225.044 409.165 222.188 409.013 219.337 409.013C217.837 409.013 216.539 408.699 215.442 408.015C214.353 407.334 213.645 406.399 213.135 405.475C212.675 404.639 212.321 403.701 212.012 402.884L211.954 402.731C211.613 401.827 211.292 401.001 210.865 400.208C210.787 400.063 210.62 399.873 210.139 399.702C209.629 399.521 208.919 399.419 208.016 399.4C207.128 399.381 206.18 399.443 205.226 399.518C205.092 399.528 204.955 399.539 204.818 399.55C204.035 399.613 203.211 399.68 202.538 399.68C200.342 399.68 198.392 399.146 196.666 398.599C196.268 398.473 195.888 398.348 195.519 398.227C194.214 397.801 193.053 397.421 191.795 397.192C190.311 396.922 188.797 396.845 187.112 396.759L187.058 396.756C185.395 396.671 183.569 396.575 181.717 396.22C175.82 395.091 172.976 393.067 169.019 390.252C168.606 389.958 168.181 389.656 167.74 389.345C166.267 388.309 164.828 387.466 163.326 386.586C162.567 386.141 161.791 385.687 160.987 385.194C158.671 383.773 156.321 382.134 154.212 379.761C152.835 378.212 150.583 378.183 147.529 378.947C146.681 379.159 145.853 379.431 144.944 379.73C144.608 379.841 144.26 379.955 143.897 380.071C142.621 380.479 141.195 380.892 139.731 381.038C138.537 381.157 137.297 381.5 135.848 381.9L135.708 381.939C134.28 382.333 132.624 382.785 130.963 382.877C130.669 382.893 130.17 383.036 129.48 383.432C128.813 383.815 128.093 384.362 127.387 385.012C125.937 386.349 124.806 387.879 124.389 388.826C124.064 389.565 123.732 390.36 123.613 391.058C123.559 391.375 123.567 391.54 123.581 391.616C125.614 393.148 127.404 394.928 129.077 396.653C129.372 396.957 129.663 397.258 129.951 397.557L129.955 397.561C131.04 398.686 132.084 399.769 133.167 400.788C133.409 400.934 133.619 401.129 133.784 401.357C133.886 401.45 133.99 401.542 134.093 401.634C134.956 402.396 135.037 403.713 134.275 404.575C134.267 404.584 134.259 404.593 134.251 404.602C134.239 404.615 134.227 404.629 134.214 404.642C134.192 404.664 134.17 404.686 134.147 404.708C134.301 404.838 134.457 404.945 134.628 405.052C134.662 405.073 134.715 405.105 134.78 405.144C135.006 405.279 135.379 405.502 135.639 405.696C136.094 406.036 136.568 406.514 136.889 407.239C137.19 407.918 137.286 408.657 137.286 409.417C137.286 410.574 137.424 411.733 137.582 413.047L137.586 413.074C137.738 414.342 137.908 415.756 137.908 417.229C137.908 418.278 138.095 419.264 138.364 420.294C138.451 420.626 138.566 421.024 138.688 421.446L138.688 421.448C138.89 422.149 139.111 422.918 139.257 423.565C139.523 424.741 139.694 426.059 139.468 427.497C139.246 428.907 138.664 430.3 137.63 431.716C137.792 431.916 138.112 432.219 138.675 432.627C139.16 432.979 139.667 433.302 140.217 433.651L140.225 433.656L140.229 433.659L140.233 433.661C140.489 433.824 140.755 433.993 141.032 434.174C141.785 434.666 142.759 435.326 143.39 436.105C143.803 436.615 144.016 437.198 144.137 437.672C144.263 438.167 144.324 438.688 144.349 439.19C144.4 440.193 144.316 441.312 144.166 442.37ZM301.299 343.403C303.377 334.101 304.474 324.429 304.474 314.5C304.474 287.912 296.611 263.161 283.085 242.444C279.144 241.925 275.134 241.61 271.06 241.362C270.024 241.299 268.976 241.227 267.917 241.155C264.414 240.915 260.798 240.667 257.192 240.706C252.513 240.756 248.072 241.293 244.259 242.867C243.011 243.383 241.232 244.195 239.665 245.202C237.996 246.273 236.998 247.296 236.712 248.083C236.285 249.258 235.925 250.479 235.54 251.785C235.348 252.438 235.149 253.113 234.933 253.813C234.312 255.823 233.567 257.954 232.475 259.828C230.482 263.243 227.498 265.07 224.357 266.153C221.757 267.049 218.897 267.478 216.337 267.862C215.89 267.929 215.452 267.994 215.027 268.061C210.275 268.803 205.33 268.904 200.502 268.91C199.585 268.912 198.674 268.909 197.769 268.907C193.856 268.898 190.052 268.889 186.371 269.152C185.913 269.185 185.346 269.198 184.791 269.212C184.58 269.217 184.37 269.222 184.169 269.228C183.384 269.252 182.603 269.292 181.877 269.389C181.139 269.488 180.56 269.634 180.146 269.82C179.743 270.002 179.63 270.161 179.595 270.226C177.494 274.195 175.901 277.9 174.675 282.167C174.611 282.388 174.565 282.713 174.508 283.247L174.491 283.412C174.445 283.856 174.385 284.433 174.273 284.966C174.15 285.553 173.913 286.379 173.327 287.077C172.651 287.882 171.691 288.307 170.598 288.307C170.408 288.307 170.215 288.306 170.044 288.304C169.951 288.304 169.864 288.303 169.788 288.303L169.641 288.302C169.641 288.344 169.64 288.389 169.64 288.435C169.64 289.29 169.635 290.136 169.629 290.975C169.596 296.214 169.564 301.157 170.879 305.925C171.039 306.506 171.371 307.133 171.872 307.911C172.015 308.133 172.191 308.395 172.38 308.676C172.756 309.234 173.185 309.872 173.516 310.439C174.056 311.366 174.591 312.503 174.723 313.817C174.861 315.194 174.541 316.584 173.675 317.959C171.592 321.268 168.487 322.584 165.741 323.746C165.039 324.043 164.403 324.566 163.43 325.365L163.408 325.383C162.52 326.113 161.334 327.082 159.828 327.624C157.776 328.363 156.962 328.669 156.27 329.145C155.604 329.602 154.963 330.283 153.575 332.061C151.437 334.801 150.088 336.876 149.303 339.016C148.533 341.115 148.253 343.425 148.514 346.686C148.655 348.453 149.022 349.439 149.803 350.03C150.263 350.379 150.79 350.823 151.306 351.258L151.578 351.487C152.204 352.014 152.844 352.542 153.49 353.017C154.141 353.494 154.747 353.877 155.291 354.131C155.848 354.39 156.215 354.455 156.426 354.448C158.604 354.376 161.06 353.131 163.636 351.187C165.734 349.602 167.676 347.743 169.41 346.083C169.776 345.732 170.133 345.391 170.48 345.062C172.228 343.408 174.309 342.275 176.14 341.286L176.256 341.223C178.117 340.218 179.73 339.347 181.082 338.164C181.505 337.794 181.861 337.276 182.377 336.478L182.455 336.357C182.902 335.663 183.512 334.715 184.344 333.966C185.073 333.311 185.925 333.149 186.579 333.152C187.202 333.155 187.781 333.304 188.195 333.43C188.489 333.52 188.82 333.639 189.069 333.728C189.121 333.747 189.171 333.765 189.215 333.78C189.245 333.791 189.272 333.8 189.297 333.809C189.495 333.878 189.598 333.906 189.637 333.917C189.65 333.92 189.655 333.923 189.655 333.923C190.541 333.992 191.453 334.117 192.291 334.233C192.296 334.234 192.301 334.234 192.305 334.235C192.554 334.269 192.797 334.303 193.03 334.334C194.109 334.476 195.059 334.573 195.938 334.549C197.572 334.506 198.883 334.062 200.048 332.527C200.299 332.196 200.541 331.744 200.843 331.111C200.868 331.058 200.894 331.004 200.92 330.947C200.928 330.931 200.936 330.914 200.944 330.896C200.97 330.841 200.997 330.785 201.024 330.727C201.262 330.218 201.545 329.614 201.852 329.071C202.663 327.64 204.067 325.879 206.714 325.827C209.546 325.771 211.992 327.087 213.852 328.375C214.602 328.894 215.338 329.329 216.088 329.758C216.24 329.845 216.396 329.933 216.553 330.023L216.556 330.024C217.151 330.362 217.775 330.716 218.369 331.089C219.941 332.076 221.472 333.297 222.809 335.342C223.371 336.202 223.62 337.231 223.746 338.161C223.876 339.123 223.901 340.191 223.88 341.269C223.856 342.539 223.759 344.012 223.664 345.461L223.664 345.463L223.663 345.466C223.603 346.386 223.543 347.296 223.503 348.138C223.392 350.466 223.414 352.462 223.753 353.909C224.09 355.347 224.566 355.624 224.939 355.707C225.948 355.931 227.131 356.333 228.257 356.715L228.75 356.882C230.087 357.333 231.398 357.753 232.634 357.995C233.888 358.241 234.87 358.261 235.595 358.069C236.221 357.902 236.727 357.565 237.127 356.805C237.342 356.396 237.549 356.034 237.749 355.746C237.848 355.604 237.979 355.43 238.141 355.265C238.265 355.138 238.595 354.816 239.118 354.649C239.415 354.554 239.814 354.496 240.261 354.597C240.716 354.7 241.071 354.934 241.321 355.187C241.754 355.625 241.881 356.124 241.919 356.289C242.012 356.683 242.005 357.084 241.999 357.29C241.987 357.666 241.941 358.155 241.901 358.58L241.882 358.787C242.035 358.644 242.337 358.26 242.639 357.342C242.988 356.277 243.153 355.044 243.219 354.222C243.78 347.209 239.22 342.988 233.415 337.616L233.096 337.32C232.458 336.73 231.772 336.144 231.036 335.515C230.884 335.386 230.73 335.254 230.574 335.12C229.679 334.354 228.731 333.528 227.836 332.641C226.055 330.876 224.337 328.729 223.555 325.994C223.426 325.543 223.269 324.621 223.258 323.756C223.253 323.334 223.279 322.741 223.46 322.173C223.624 321.656 224.157 320.5 225.553 320.285C228.288 319.865 231.148 319.862 233.888 319.952C234.899 319.985 235.879 320.03 236.836 320.074C238.547 320.152 240.185 320.227 241.805 320.227C247.793 320.227 252.578 323.361 256.84 326.154C257.326 326.472 257.806 326.786 258.279 327.091C259.615 327.949 260.827 328.921 261.918 329.795C262.254 330.064 262.579 330.324 262.892 330.569C264.274 331.649 265.563 332.545 267.099 333.17C270.783 334.671 274.46 334.62 278.748 334.561C279.612 334.549 280.5 334.537 281.418 334.537C284.181 334.537 286.381 335.894 288.126 337.143C288.623 337.499 289.08 337.841 289.513 338.165C290.741 339.085 291.774 339.858 292.969 340.381C295.965 341.692 298.621 342.709 301.299 343.403ZM88.3652 358.652C88.3652 358.652 88.368 358.658 88.37 358.67C88.3656 358.659 88.3652 358.652 88.3652 358.652ZM241.183 358.108C241.186 358.104 241.186 358.104 241.184 358.107L241.183 358.108ZM123.6 391.669C123.6 391.669 123.591 391.661 123.585 391.634C123.59 391.64 123.593 391.646 123.595 391.651C123.597 391.654 123.599 391.659 123.599 391.659C123.6 391.664 123.6 391.669 123.6 391.669Z" fill="url(#paint2_linear_40_173)"/>
<path d="M247.994 206.238C226.603 191.293 200.575 182.526 172.5 182.526C147.829 182.526 124.739 189.296 104.987 201.079C106.386 203.393 108.368 205.401 110.915 207.245C113.865 209.382 116.344 210.668 119.544 210.721C119.906 210.727 120.312 210.709 120.807 210.685L120.899 210.68C121.35 210.658 121.867 210.633 122.385 210.631C123.464 210.629 124.842 210.722 126.11 211.355C131.03 213.816 135.99 216.814 140.551 219.766C141.677 220.494 142.89 221.428 144.046 222.319L144.047 222.32C144.588 222.736 145.115 223.142 145.616 223.514C147.305 224.767 148.846 225.756 150.31 226.244C159.719 229.38 168.112 229.102 177.516 226.359C180.152 225.59 182.801 224.761 185.468 223.927C198.292 219.915 211.529 215.773 225.713 217.546C228.425 217.885 231.715 217.835 234.696 217.124C237.701 216.406 240.129 215.084 241.512 213.099C242.77 211.295 244.512 209.624 246.08 208.119L246.082 208.118C246.393 207.819 246.698 207.527 246.99 207.241C247.34 206.9 247.675 206.567 247.994 206.238Z" fill="url(#paint3_linear_40_173)"/>
<path d="M60.1244 383.736C47.6973 363.609 40.5264 339.892 40.5264 314.5C40.5264 287.463 48.6569 262.324 62.6063 241.396C63.834 241.827 65.0523 242.588 66.3928 243.548C66.7723 243.82 67.1741 244.119 67.5899 244.427C68.6105 245.185 69.7169 246.006 70.7926 246.661C73.3783 248.237 76.0722 249.409 78.6627 250.492C79.0137 250.638 79.3622 250.783 79.7083 250.927C81.9554 251.86 84.103 252.752 86.1856 253.847C89.8923 255.796 92.7778 257.05 97.4788 256.528C97.6907 256.504 97.893 256.481 98.0866 256.46L98.1979 256.447C99.89 256.255 100.906 256.14 101.884 256.247C102.848 256.353 103.861 256.696 105.421 257.788C106.459 258.515 107.542 259.177 108.558 259.799L108.723 259.9C109.809 260.564 110.819 261.187 111.756 261.862C113.611 263.198 115.033 264.635 115.855 266.625L115.856 266.627C116.54 268.283 117.264 270.037 117.498 271.675C117.724 273.26 117.437 274.282 116.603 274.993C115.305 276.098 113.675 277.016 111.838 277.921C111.238 278.217 110.595 278.521 109.936 278.832L109.932 278.834L109.93 278.835C108.685 279.423 107.388 280.035 106.24 280.661C105.969 280.809 105.602 280.994 105.175 281.209C104.046 281.778 102.5 282.557 101.209 283.415C99.4831 284.562 97.2543 286.429 97.0379 289.17C96.8485 291.569 96.5353 293.984 96.2135 296.466L96.2131 296.469C96.1301 297.109 96.0464 297.754 95.9642 298.405C95.5678 301.54 95.2096 304.762 95.1651 307.971C95.0976 312.829 94.914 316.076 92.6423 320.027C91.6379 321.774 90.516 323.436 89.347 325.168C89.1447 325.468 88.941 325.77 88.7363 326.075C87.3687 328.11 85.9711 330.251 84.8076 332.578C83.1324 335.928 81.1948 340.814 80.8947 344.867C80.7101 347.358 80.5127 351.152 82.8521 353.986C83.8011 355.136 84.9973 355.984 85.9411 356.653L86.0778 356.75C87.1008 357.476 87.8392 358.025 88.3723 358.691C88.3786 358.77 88.3684 358.979 88.2147 359.4C87.9406 360.15 87.3636 361.102 86.569 362.151C84.9999 364.224 82.9535 366.201 82.1322 366.974C80.621 368.396 79.1519 370.12 77.7564 371.758L77.7554 371.759L77.7515 371.764C77.1866 372.427 76.6337 373.076 76.0947 373.685C74.1288 375.907 72.2166 377.774 70.0423 378.918C68.183 379.897 66.3332 380.768 64.4346 381.663L64.4326 381.664C63.1984 382.246 61.9436 382.837 60.6521 383.474C60.4763 383.561 60.3004 383.648 60.1244 383.736Z" fill="url(#paint4_linear_40_173)"/>
<path d="M304.474 314.5C304.474 324.429 303.377 334.101 301.299 343.403C298.621 342.709 295.965 341.692 292.969 340.381C291.774 339.858 290.741 339.085 289.513 338.165C289.08 337.841 288.623 337.499 288.126 337.143C286.381 335.894 284.181 334.537 281.418 334.537C280.5 334.537 279.612 334.549 278.748 334.561C274.46 334.62 270.783 334.671 267.099 333.17C265.563 332.545 264.274 331.649 262.892 330.569C262.579 330.324 262.254 330.064 261.918 329.795C260.827 328.921 259.615 327.949 258.279 327.091C257.806 326.786 257.326 326.472 256.84 326.154C252.578 323.361 247.793 320.227 241.805 320.227C240.185 320.227 238.547 320.152 236.836 320.074C235.879 320.03 234.899 319.985 233.888 319.952C231.148 319.862 228.288 319.865 225.553 320.285C224.157 320.5 223.624 321.656 223.46 322.173C223.279 322.741 223.253 323.334 223.258 323.756C223.269 324.621 223.426 325.543 223.555 325.994C224.337 328.729 226.055 330.876 227.836 332.641C228.731 333.528 229.679 334.354 230.574 335.12C230.73 335.254 230.884 335.386 231.036 335.515C231.772 336.144 232.458 336.73 233.096 337.32L233.415 337.616C239.22 342.988 243.78 347.209 243.219 354.222C243.153 355.044 242.988 356.277 242.639 357.342C242.337 358.26 242.035 358.644 241.882 358.787L241.901 358.58C241.941 358.155 241.987 357.666 241.999 357.29C242.005 357.084 242.012 356.683 241.919 356.289C241.881 356.124 241.754 355.625 241.321 355.187C241.071 354.934 240.716 354.7 240.261 354.597C239.814 354.496 239.415 354.554 239.118 354.649C238.595 354.816 238.265 355.138 238.141 355.265C237.979 355.43 237.848 355.604 237.749 355.746C237.549 356.034 237.342 356.396 237.127 356.805C236.727 357.565 236.221 357.902 235.595 358.069C234.87 358.261 233.888 358.241 232.634 357.995C231.398 357.753 230.087 357.333 228.75 356.882L228.257 356.715C227.131 356.333 225.948 355.931 224.939 355.707C224.566 355.624 224.09 355.347 223.753 353.909C223.414 352.462 223.392 350.466 223.503 348.138C223.543 347.296 223.603 346.386 223.663 345.466L223.664 345.463L223.664 345.461C223.759 344.012 223.856 342.539 223.88 341.269C223.901 340.191 223.876 339.123 223.746 338.161C223.62 337.231 223.371 336.202 222.809 335.342C221.472 333.297 219.941 332.076 218.369 331.089C217.775 330.716 217.151 330.362 216.556 330.024L216.553 330.023C216.396 329.933 216.24 329.845 216.088 329.758C215.338 329.329 214.602 328.894 213.852 328.375C211.992 327.087 209.546 325.771 206.714 325.827C204.067 325.879 202.663 327.64 201.852 329.071C201.545 329.614 201.262 330.218 201.024 330.727L200.944 330.896L200.92 330.947C200.894 331.004 200.868 331.058 200.843 331.111C200.541 331.744 200.299 332.196 200.048 332.527C198.883 334.062 197.572 334.506 195.938 334.549C195.059 334.573 194.109 334.476 193.03 334.334C192.797 334.303 192.554 334.269 192.305 334.235L192.291 334.233C191.453 334.117 190.541 333.992 189.655 333.923C189.655 333.923 189.65 333.92 189.637 333.917C189.598 333.906 189.495 333.878 189.297 333.809L189.215 333.78L189.069 333.728C188.82 333.639 188.489 333.52 188.195 333.43C187.781 333.304 187.202 333.155 186.579 333.152C185.925 333.149 185.073 333.311 184.344 333.966C183.512 334.715 182.902 335.663 182.455 336.357L182.377 336.478C181.861 337.276 181.505 337.794 181.082 338.164C179.73 339.347 178.117 340.218 176.256 341.223L176.14 341.286C174.309 342.275 172.228 343.408 170.48 345.062C170.133 345.391 169.776 345.732 169.41 346.083C167.676 347.743 165.734 349.602 163.636 351.187C161.06 353.131 158.604 354.376 156.426 354.448C156.215 354.455 155.848 354.39 155.291 354.131C154.747 353.877 154.141 353.494 153.49 353.017C152.844 352.542 152.204 352.014 151.578 351.487L151.306 351.258C150.79 350.823 150.263 350.379 149.803 350.03C149.022 349.439 148.655 348.453 148.514 346.686C148.253 343.425 148.533 341.115 149.303 339.016C150.088 336.876 151.437 334.801 153.575 332.061C154.963 330.283 155.604 329.602 156.27 329.145C156.962 328.669 157.776 328.363 159.828 327.624C161.334 327.082 162.52 326.113 163.408 325.383L163.43 325.365C164.403 324.566 165.039 324.043 165.741 323.746C168.487 322.584 171.592 321.268 173.675 317.959C174.541 316.584 174.861 315.194 174.723 313.817C174.591 312.503 174.056 311.366 173.516 310.439C173.185 309.872 172.756 309.234 172.38 308.676C172.191 308.395 172.015 308.133 171.872 307.911C171.371 307.133 171.039 306.506 170.879 305.925C169.564 301.157 169.596 296.214 169.629 290.975C169.635 290.136 169.64 289.29 169.64 288.435C169.64 288.389 169.641 288.344 169.641 288.302L169.788 288.303C169.864 288.303 169.951 288.304 170.044 288.304C170.215 288.306 170.408 288.307 170.598 288.307C171.691 288.307 172.651 287.882 173.327 287.077C173.913 286.379 174.15 285.553 174.273 284.966C174.385 284.433 174.445 283.856 174.491 283.412L174.508 283.247C174.565 282.713 174.611 282.388 174.675 282.167C175.901 277.9 177.494 274.195 179.595 270.226C179.63 270.161 179.743 270.002 180.146 269.82C180.56 269.634 181.139 269.488 181.877 269.389C182.603 269.292 183.384 269.252 184.169 269.228C184.37 269.222 184.58 269.217 184.791 269.212C185.346 269.198 185.913 269.185 186.371 269.152C190.052 268.889 193.856 268.898 197.769 268.907C198.674 268.909 199.585 268.912 200.502 268.91C205.33 268.904 210.275 268.803 215.027 268.061C215.452 267.994 215.89 267.929 216.337 267.862C218.897 267.478 221.757 267.049 224.357 266.153C227.498 265.07 230.482 263.243 232.475 259.828C233.567 257.954 234.312 255.823 234.933 253.813C235.149 253.113 235.348 252.438 235.54 251.785C235.925 250.479 236.285 249.258 236.712 248.083C236.998 247.296 237.996 246.273 239.665 245.202C241.232 244.195 243.011 243.383 244.259 242.867C248.072 241.293 252.513 240.756 257.192 240.706C260.798 240.667 264.414 240.915 267.917 241.155C268.976 241.227 270.024 241.299 271.06 241.362C275.134 241.61 279.144 241.925 283.085 242.444C296.611 263.161 304.474 287.912 304.474 314.5Z" fill="url(#paint5_linear_40_173)"/>
<path d="M144 443.388C144.062 443.052 144.118 442.711 144.166 442.37C144.316 441.312 144.4 440.193 144.349 439.19C144.324 438.688 144.263 438.167 144.137 437.672C144.016 437.198 143.803 436.615 143.39 436.105C142.759 435.326 141.785 434.666 141.032 434.174C140.755 433.993 140.489 433.824 140.233 433.661L140.229 433.659L140.225 433.656L140.217 433.651C139.667 433.302 139.16 432.979 138.675 432.627C138.112 432.219 137.792 431.916 137.63 431.716C138.664 430.3 139.246 428.907 139.468 427.497C139.694 426.059 139.523 424.741 139.257 423.565C139.111 422.918 138.89 422.149 138.688 421.448L138.688 421.446C138.566 421.024 138.451 420.626 138.364 420.294C138.095 419.264 137.908 418.278 137.908 417.229C137.908 415.756 137.738 414.342 137.586 413.074L137.582 413.047C137.424 411.733 137.286 410.574 137.286 409.417C137.286 408.657 137.19 407.918 136.889 407.239C136.568 406.514 136.094 406.036 135.639 405.696C135.379 405.502 135.006 405.279 134.78 405.144C134.715 405.105 134.662 405.073 134.628 405.052C134.457 404.945 134.301 404.838 134.147 404.708C134.17 404.686 134.192 404.664 134.214 404.642C134.227 404.629 134.239 404.615 134.251 404.602L134.275 404.575C135.037 403.713 134.956 402.396 134.093 401.634C133.99 401.542 133.886 401.45 133.784 401.357C133.619 401.129 133.409 400.934 133.167 400.788C132.084 399.769 131.04 398.686 129.955 397.561L129.951 397.557C129.663 397.258 129.372 396.957 129.077 396.653C127.404 394.928 125.614 393.148 123.581 391.616C123.567 391.54 123.559 391.375 123.613 391.058C123.732 390.36 124.064 389.565 124.389 388.826C124.806 387.879 125.937 386.349 127.387 385.012C128.093 384.362 128.813 383.815 129.48 383.432C130.17 383.036 130.669 382.893 130.963 382.877C132.624 382.785 134.28 382.333 135.708 381.939L135.848 381.9C137.297 381.5 138.537 381.157 139.731 381.038C141.195 380.892 142.621 380.479 143.897 380.071C144.26 379.955 144.608 379.841 144.944 379.73C145.853 379.431 146.681 379.159 147.529 378.947C150.583 378.183 152.835 378.212 154.212 379.761C156.321 382.134 158.671 383.773 160.987 385.194C161.791 385.687 162.567 386.141 163.326 386.586C164.828 387.466 166.267 388.309 167.74 389.345C168.181 389.656 168.606 389.958 169.019 390.252C172.976 393.067 175.82 395.091 181.717 396.22C183.569 396.575 185.395 396.671 187.058 396.756L187.112 396.759C188.797 396.845 190.311 396.922 191.795 397.192C193.053 397.421 194.214 397.801 195.519 398.227C195.888 398.348 196.268 398.473 196.666 398.599C198.392 399.146 200.342 399.68 202.538 399.68C203.211 399.68 204.035 399.613 204.818 399.55C204.955 399.539 205.092 399.528 205.226 399.518C206.18 399.443 207.128 399.381 208.016 399.4C208.919 399.419 209.629 399.521 210.139 399.702C210.62 399.873 210.787 400.063 210.865 400.208C211.292 401.001 211.613 401.827 211.954 402.731L212.012 402.884C212.321 403.701 212.675 404.639 213.135 405.475C213.645 406.399 214.353 407.334 215.442 408.015C216.539 408.699 217.837 409.013 219.337 409.013C222.188 409.013 225.044 409.165 227.962 409.321L227.999 409.323C230.886 409.477 233.835 409.635 236.793 409.635C240.658 409.635 244.485 408.979 248.103 408.359L248.651 408.265C252.499 407.607 256.122 407.025 259.71 407.145C261.782 407.214 262.662 407.552 263.068 407.902C263.325 408.124 263.655 408.585 263.751 409.843C240.05 432.533 207.903 446.474 172.5 446.474C162.715 446.474 153.178 445.409 144 443.388Z" fill="url(#paint6_linear_40_173)"/>
</g>
<mask id="mask1_40_173" style="mask-type:alpha" maskUnits="userSpaceOnUse" x="271" y="21" width="468" height="570">
<path d="M439.435 68.8833C416.511 25.273 362.574 8.50374 318.963 31.4281V31.4281C275.353 54.3525 258.584 108.289 281.508 151.9L298.118 183.496C346.662 275.845 406.585 361.748 476.488 439.197L587.438 562.127C613.897 591.442 656.86 599.096 691.815 580.721V580.721C741.752 554.471 753.56 488.19 715.76 446.309L634.415 356.181C564.512 278.731 504.589 192.829 456.044 100.48L439.435 68.8833Z" fill="url(#paint7_linear_40_173)"/>
</mask>
<g mask="url(#mask1_40_173)">
<path d="M439.435 68.8832C416.511 25.273 362.574 8.50374 318.963 31.4281V31.4281C275.353 54.3525 258.584 108.289 281.508 151.9L298.118 183.496C346.662 275.845 406.585 361.748 476.488 439.197L587.438 562.126C613.897 591.442 656.86 599.096 691.815 580.721V580.721C741.752 554.471 753.56 488.19 715.76 446.309L634.415 356.181C564.512 278.731 504.589 192.829 456.044 100.48L439.435 68.8832Z" fill="#C4C4C4"/>
<path d="M439.435 68.8832C416.511 25.273 362.574 8.50374 318.963 31.4281V31.4281C275.353 54.3525 258.584 108.289 281.508 151.9L298.118 183.496C346.662 275.845 406.585 361.748 476.488 439.197L587.438 562.126C613.897 591.442 656.86 599.096 691.815 580.721V580.721C741.752 554.471 753.56 488.19 715.76 446.309L634.415 356.181C564.512 278.731 504.589 192.829 456.044 100.48L439.435 68.8832Z" fill="url(#paint8_linear_40_173)"/>
</g>
<rect width="28.8994" height="18.6372" rx="9.31858" transform="matrix(-0.885156 0.465295 0.465295 0.885156 396.58 196)" fill="white"/>
<rect width="60.8301" height="61.8422" rx="30.415" transform="matrix(-0.885156 0.465295 0.465295 0.885156 409.409 90.5542)" fill="white"/>
<rect width="34.76" height="35.3384" rx="17.38" transform="matrix(-0.885156 0.465295 0.465295 0.885156 398.304 116)" fill="url(#paint9_linear_40_173)"/>
<rect width="9.71369" height="9.8753" rx="4.85685" transform="matrix(-0.885156 0.465295 0.465295 0.885156 390.598 141)" fill="white"/>
<rect width="60.8301" height="61.8422" rx="30.415" transform="matrix(-0.885156 0.465295 0.465295 0.885156 347.873 122.902)" fill="white"/>
<rect width="34.76" height="35.3384" rx="17.38" transform="matrix(-0.885156 0.465295 0.465295 0.885156 336.768 148.347)" fill="url(#paint10_linear_40_173)"/>
<rect width="9.71369" height="9.8753" rx="4.85685" transform="matrix(-0.885156 0.465295 0.465295 0.885156 328.524 174.673)" fill="white"/>
<path d="M110.943 168.297C120.919 165.592 130.939 162.578 140.736 160.129C153.122 157.032 165.221 156.222 178.105 156.222C184.918 156.222 191.575 155.512 198.309 155.512C201.827 155.512 205.65 155.949 208.609 157.998C209.977 158.946 216.361 160.484 215.356 160.484" stroke="white" stroke-width="7" stroke-linecap="round"/>
<path d="M66.1946 166.166C73.5334 162.497 80.3542 158.097 87.8586 154.762C96.051 151.121 103.767 147.841 112.206 144.857C122.061 141.373 132.393 139.772 142.472 137.084C146.778 135.935 151.268 135.787 155.692 135.466C159.745 135.172 164.739 135.698 168.477 134.203" stroke="white" stroke-width="7" stroke-linecap="round"/>
<path d="M295.62 428.265C302.029 423.021 307.732 416.287 312.667 409.639C317.27 403.438 321.054 397.919 322.453 390.225C323.371 385.173 323.491 380.093 324.189 374.993C324.49 372.798 324.715 366.496 326.162 365.049" stroke="white" stroke-width="7" stroke-linecap="round"/>
<path d="M336.106 420.452C339.453 413.49 341.057 405.764 341.947 398.117C343.053 388.603 345.242 378.739 345.34 369.153C345.421 361.275 345.904 353.129 344.788 345.318C343.968 339.577 344.594 331.93 342.499 326.693" stroke="white" stroke-width="7" stroke-linecap="round"/>
</g>
<defs>
<linearGradient id="paint0_linear_40_173" x1="172.5" y1="183" x2="172.5" y2="446" gradientUnits="userSpaceOnUse">
<stop stop-color="#00B2FF"/>
<stop offset="1" stop-color="#0066FF"/>
</linearGradient>
<linearGradient id="paint1_linear_40_173" x1="172.5" y1="183" x2="172.5" y2="446" gradientUnits="userSpaceOnUse">
<stop stop-color="#00B2FF"/>
<stop offset="1" stop-color="#0066FF"/>
</linearGradient>
<linearGradient id="paint2_linear_40_173" x1="172.5" y1="178.359" x2="172.5" y2="450.641" gradientUnits="userSpaceOnUse">
<stop stop-color="white"/>
<stop offset="1" stop-color="white" stop-opacity="0.68"/>
</linearGradient>
<linearGradient id="paint3_linear_40_173" x1="172.5" y1="178.359" x2="172.5" y2="450.641" gradientUnits="userSpaceOnUse">
<stop stop-color="white"/>
<stop offset="1" stop-color="white" stop-opacity="0.68"/>
</linearGradient>
<linearGradient id="paint4_linear_40_173" x1="172.5" y1="178.359" x2="172.5" y2="450.641" gradientUnits="userSpaceOnUse">
<stop stop-color="white"/>
<stop offset="1" stop-color="white" stop-opacity="0.68"/>
</linearGradient>
<linearGradient id="paint5_linear_40_173" x1="172.5" y1="178.359" x2="172.5" y2="450.641" gradientUnits="userSpaceOnUse">
<stop stop-color="white"/>
<stop offset="1" stop-color="white" stop-opacity="0.68"/>
</linearGradient>
<linearGradient id="paint6_linear_40_173" x1="172.5" y1="178.359" x2="172.5" y2="450.641" gradientUnits="userSpaceOnUse">
<stop stop-color="white"/>
<stop offset="1" stop-color="white" stop-opacity="0.68"/>
</linearGradient>
<linearGradient id="paint7_linear_40_173" x1="464" y1="310" x2="349.91" y2="276.81" gradientUnits="userSpaceOnUse">
<stop stop-color="#FFA800" stop-opacity="0"/>
<stop offset="1" stop-color="#FF3D00"/>
</linearGradient>
<linearGradient id="paint8_linear_40_173" x1="318.963" y1="31.428" x2="653.086" y2="667.047" gradientUnits="userSpaceOnUse">
<stop stop-color="#00B2FF"/>
<stop offset="1" stop-color="#0066FF"/>
</linearGradient>
<linearGradient id="paint9_linear_40_173" x1="17.38" y1="0" x2="17.38" y2="35.3384" gradientUnits="userSpaceOnUse">
<stop stop-color="#3D3D3D"/>
<stop offset="1"/>
</linearGradient>
<linearGradient id="paint10_linear_40_173" x1="17.38" y1="0" x2="17.38" y2="35.3384" gradientUnits="userSpaceOnUse">
<stop stop-color="#3D3D3D"/>
<stop offset="1"/>
</linearGradient>
<clipPath id="clip0_40_173">
<rect width="500" height="500" fill="white"/>
</clipPath>
</defs>
</svg>
