<svg width="467" height="87" viewBox="0 0 467 87" fill="none" xmlns="http://www.w3.org/2000/svg">
<path d="M108.296 73V9.63997H132.104C138.76 9.63997 144.232 11.528 148.52 15.304C152.808 19.08 154.952 24.008 154.952 30.088C154.952 36.104 152.808 41.032 148.52 44.872C144.232 48.712 138.76 50.632 132.104 50.632H121.256V73H108.296ZM121.256 39.304H132.104C135.112 39.304 137.448 38.472 139.112 36.808C140.84 35.08 141.704 32.84 141.704 30.088C141.704 27.4 140.808 25.224 139.016 23.56C137.288 21.896 134.984 21.064 132.104 21.064H121.256V39.304Z" fill="white"/>
<path d="M187.376 25.48V36.904H183.92C179.952 36.904 176.816 37.96 174.512 40.072C172.272 42.184 171.152 45.256 171.152 49.288V73H158.192V25.48H170.096V31.144C173.424 26.984 177.776 24.904 183.152 24.904C184.752 24.904 186.16 25.096 187.376 25.48Z" fill="white"/>
<path d="M185.545 49.192C185.417 42.408 187.881 36.552 192.937 31.624C197.993 26.696 204.009 24.296 210.985 24.424C217.961 24.296 223.977 26.696 229.033 31.624C234.153 36.552 236.649 42.408 236.521 49.192C236.649 55.976 234.153 61.864 229.033 66.856C223.913 71.784 217.865 74.184 210.889 74.056C203.913 74.184 197.897 71.784 192.841 66.856C187.849 61.864 185.417 55.976 185.545 49.192ZM219.721 58.504C222.089 56.072 223.273 53 223.273 49.288C223.273 45.576 222.089 42.472 219.721 39.976C217.417 37.48 214.505 36.232 210.985 36.232C207.401 36.232 204.457 37.48 202.153 39.976C199.849 42.408 198.697 45.512 198.697 49.288C198.697 53 199.849 56.072 202.153 58.504C204.457 60.936 207.401 62.152 210.985 62.152C214.505 62.152 217.417 60.936 219.721 58.504Z" fill="white"/>
<path d="M284.08 43.528V73H271.216V45.256C271.216 42.504 270.384 40.296 268.72 38.632C267.12 36.904 265.008 36.04 262.384 36.04C259.76 36.04 257.584 36.904 255.856 38.632C254.192 40.296 253.36 42.504 253.36 45.256V73H240.4V25.48H252.304V29.8C255.888 26.216 260.528 24.424 266.224 24.424C271.728 24.424 276.08 26.152 279.28 29.608C282.48 33.064 284.08 37.704 284.08 43.528Z" fill="white"/>
<path d="M287.628 49.192C287.5 42.408 289.964 36.552 295.02 31.624C300.076 26.696 306.092 24.296 313.068 24.424C320.044 24.296 326.06 26.696 331.116 31.624C336.236 36.552 338.732 42.408 338.604 49.192C338.732 55.976 336.236 61.864 331.116 66.856C325.996 71.784 319.948 74.184 312.972 74.056C305.996 74.184 299.98 71.784 294.924 66.856C289.932 61.864 287.5 55.976 287.628 49.192ZM321.804 58.504C324.172 56.072 325.356 53 325.356 49.288C325.356 45.576 324.172 42.472 321.804 39.976C319.5 37.48 316.588 36.232 313.068 36.232C309.484 36.232 306.54 37.48 304.236 39.976C301.932 42.408 300.78 45.512 300.78 49.288C300.78 53 301.932 56.072 304.236 58.504C306.54 60.936 309.484 62.152 313.068 62.152C316.588 62.152 319.5 60.936 321.804 58.504Z" fill="white"/>
<path d="M373.01 62.152V73C369.938 73.768 366.962 74.152 364.082 74.152C358.002 74.152 353.298 72.648 349.97 69.64C346.706 66.632 345.074 62.184 345.074 56.296V36.424H337.586V25.48H345.074V13.48H358.034V25.48H371.474V36.424H358.034V55.144C358.034 57.832 358.706 59.752 360.05 60.904C361.458 61.992 363.73 62.536 366.866 62.536C367.954 62.536 370.002 62.408 373.01 62.152Z" fill="white"/>
<path d="M418.922 53.608H385.61C386.378 56.616 387.914 58.952 390.218 60.616C392.586 62.216 395.498 63.016 398.954 63.016C403.626 63.016 408.042 61.416 412.202 58.216L417.578 67.048C411.882 71.784 405.546 74.152 398.57 74.152C391.274 74.28 385.066 71.912 379.946 67.048C374.89 62.12 372.426 56.2 372.554 49.288C372.426 42.44 374.826 36.552 379.754 31.624C384.682 26.696 390.57 24.296 397.418 24.424C403.946 24.424 409.29 26.536 413.45 30.76C417.674 34.984 419.786 40.232 419.786 46.504C419.786 48.808 419.498 51.176 418.922 53.608ZM385.61 44.488H407.21C407.146 41.608 406.122 39.304 404.138 37.576C402.218 35.784 399.818 34.888 396.938 34.888C394.186 34.888 391.786 35.752 389.738 37.48C387.69 39.208 386.314 41.544 385.61 44.488Z" fill="white"/>
<path d="M438.058 64.744V47.752H421.546V36.712H438.058V19.816H450.442V36.712H466.762V47.752H450.442V64.744H438.058Z" fill="white"/>
<path fill-rule="evenodd" clip-rule="evenodd" d="M24.4189 8.04531C22.6995 8.20695 22.0472 8.73296 21.7972 9.05711C21.5489 9.37911 21.2081 10.1365 21.4914 11.8285C21.776 13.5292 22.6415 15.7611 24.2274 18.4002C25.4372 20.4132 27.0014 22.556 28.882 24.7491C33.1539 24.8201 37.7089 25.2514 42.3716 26.0628C51.5844 27.6661 59.8982 30.5238 66.0914 34.0346C62.8091 29.5464 58.0257 24.6542 52.1002 20.1078C44.7854 14.4957 37.4049 10.6956 31.4988 8.99806C28.5333 8.14573 26.145 7.88303 24.4189 8.04531ZM69.3134 47.2181C69.1562 46.9022 68.9336 46.5409 68.6223 46.1311C67.5772 44.7553 65.7701 43.1785 63.1358 41.5752C57.8895 38.3824 50.0924 35.5267 41 33.9444C39.9287 33.7579 38.8683 33.5942 37.8212 33.4524C38.6155 34.1098 39.4339 34.7623 40.2753 35.4079C47.5901 41.0201 54.9706 44.8201 60.8767 46.5177C63.8422 47.37 66.2305 47.6327 67.9566 47.4704C68.5131 47.4181 68.9579 47.3276 69.3134 47.2181ZM19.1615 25.2736C18.5138 24.3475 17.9158 23.4286 17.3703 22.5209C15.4798 19.3751 14.1082 16.1783 13.6011 13.1493C13.0927 10.1117 13.4056 6.83838 15.4623 4.17154C17.5173 1.50684 20.6032 0.368763 23.6701 0.0804273C26.7304 -0.207286 30.1765 0.294129 33.7087 1.30935C40.7977 3.34688 49.0648 7.69568 56.9699 13.7607C64.8747 19.8256 71.2107 26.6808 75.0051 32.9948C75.2939 33.4754 75.5706 33.9571 75.834 34.4393C76.8185 32.5446 77.8081 30.8085 78.7845 29.2633C80.4047 26.6993 82.1082 24.4679 83.8255 22.9199C84.6828 22.1472 85.6993 21.4016 86.8579 20.9284C88.0473 20.4426 89.6108 20.1632 91.255 20.7333C92.9001 21.3038 93.9552 22.4924 94.588 23.613C95.2039 24.7036 95.5379 25.9198 95.7299 27.0572C96.1143 29.336 96.0623 32.1415 95.7383 35.1551C95.0832 41.2476 93.2093 49.1157 90.3293 57.3776C87.4494 65.6396 84.0255 72.9699 80.7503 78.153C79.1301 80.7169 77.4266 82.9484 75.7093 84.4964C74.852 85.2691 73.8355 86.0147 72.6769 86.4879C71.4875 86.9737 69.924 87.2531 68.2799 86.683C66.6347 86.1125 65.5796 84.9239 64.9468 83.8033C64.3309 82.7127 63.9969 81.4965 63.805 80.359C63.4205 78.0803 63.4725 75.2748 63.7965 72.2612C64.1734 68.7557 64.9539 64.6623 66.0973 60.2443C65.0039 60.5765 63.8635 60.8609 62.6896 61.1012C55.463 62.5802 46.1174 62.5581 36.2937 60.8486C26.4701 59.139 17.6687 56.0031 11.3704 52.17C8.23244 50.2603 5.5307 48.0655 3.67254 45.6194C1.80976 43.1672 0.561623 40.1236 1.14196 36.806C1.72213 33.4893 3.92859 31.0491 6.51178 29.3723C9.08919 27.6993 12.3752 26.5471 15.9757 25.8102C16.9969 25.6012 18.0603 25.4222 19.1615 25.2736ZM57.4357 53.8331C51.8954 54.4577 45.0388 54.2502 37.6653 52.967C28.5729 51.3847 20.7758 48.529 15.5295 45.3361C12.8952 43.7329 11.0881 42.1561 10.043 40.7802C9.00247 39.4104 8.95284 38.5816 9.0223 38.1845C9.09193 37.7864 9.42132 37.0214 10.8675 36.0826C12.3195 35.1401 14.5564 34.2665 17.5798 33.6477C19.8708 33.1788 22.4926 32.8806 25.3625 32.7782C28.2924 35.8532 31.6742 38.8922 35.4056 41.755C42.8572 47.4722 50.6306 51.6643 57.4357 53.8331ZM77.6078 50.3118C77.321 51.0862 77.0381 51.8732 76.7597 52.6719C74.019 60.5343 72.3233 67.7907 71.7507 73.1165C71.571 74.7876 71.5118 76.1825 71.5425 77.2967C72.2619 76.4402 73.0858 75.3062 73.9873 73.8796C76.8511 69.3475 80.0345 62.6067 82.7751 54.7444C85.5158 46.882 87.2115 39.6256 87.7841 34.2998C87.9638 32.6287 88.023 31.2337 87.9923 30.1196C87.2729 30.9761 86.449 32.11 85.5475 33.5367C83.3467 37.0196 80.9571 41.807 78.7247 47.4054C78.5071 48.4085 78.1458 49.3873 77.6078 50.3118Z" fill="white"/>
</svg>
