<svg width="500" height="500" viewBox="0 0 500 500" fill="none" xmlns="http://www.w3.org/2000/svg">
<g clip-path="url(#clip0_40_3)">
<mask id="mask0_40_3" style="mask-type:alpha" maskUnits="userSpaceOnUse" x="225" y="183" width="235" height="415">
<path d="M342.048 230.328C349.237 198.299 381.03 178.162 413.059 185.352V185.352C445.089 192.541 465.225 224.334 458.036 256.363L453.285 277.53C438.206 344.708 414.637 409.693 383.146 470.919L333.951 566.567C321.968 589.865 295.758 602.123 270.196 596.386V596.386C233.464 588.141 214.42 547.421 231.638 513.944L267.158 444.884C298.649 383.658 322.218 318.673 337.297 251.495L342.048 230.328Z" fill="url(#paint0_radial_40_3)"/>
</mask>
<g mask="url(#mask0_40_3)">
<path d="M342.048 230.328C349.237 198.299 381.03 178.162 413.059 185.352V185.352C445.089 192.541 465.225 224.334 458.036 256.363L453.285 277.53C438.206 344.708 414.637 409.693 383.146 470.919L333.951 566.567C321.968 589.865 295.758 602.123 270.196 596.386V596.386C233.464 588.141 214.42 547.421 231.638 513.944L267.158 444.884C298.649 383.658 322.218 318.673 337.297 251.495L342.048 230.328Z" fill="url(#paint1_linear_40_3)"/>
<rect x="365.346" y="238.061" width="40.5294" height="40.5294" rx="20.2647" transform="rotate(12.6511 365.346 238.061)" fill="white"/>
<rect x="375.693" y="244.834" width="23.1597" height="23.1597" rx="11.5798" transform="rotate(12.6511 375.693 244.834)" fill="url(#paint2_linear_40_3)"/>
<rect x="410.541" y="248.206" width="40.5294" height="40.5294" rx="20.2647" transform="rotate(12.6511 410.541 248.206)" fill="white"/>
<rect x="420.888" y="254.979" width="23.1597" height="23.1597" rx="11.5798" transform="rotate(12.6511 420.888 254.979)" fill="url(#paint3_linear_40_3)"/>
<path d="M422.011 310.214L424.637 308.776C425.914 308.077 425.409 306.148 423.949 306.142C410.473 306.085 397.163 303.098 384.956 297.39C383.633 296.771 382.352 298.299 383.208 299.476L384.968 301.899C393.444 313.567 409.361 317.139 422.011 310.214Z" fill="white"/>
</g>
<path d="M170 438C176.446 411.184 187.606 384.988 193 358" stroke="#00B2FF" stroke-width="7" stroke-linecap="round"/>
<path d="M194 465C197.548 452.209 202.786 439.349 203.632 425.95C204.219 416.662 205.802 407.98 208 399" stroke="#00B2FF" stroke-width="7" stroke-linecap="round"/>
<path d="M79 391C78.4756 399.011 74.827 406.246 72.3333 413.81C69.4569 422.535 68.2071 431.283 66.1605 440.171C63.9512 449.766 60.6498 459.349 59 469" stroke="#00FFA3" stroke-width="7" stroke-linecap="round"/>
<path d="M50 402C46.8324 417.302 42.4314 432.565 38.5111 447.652C36.5348 455.258 32.5374 462.343 30.4444 469.995C29.7471 472.545 28 474.234 28 477" stroke="#00FFA3" stroke-width="7" stroke-linecap="round"/>
<path d="M403.976 148.102C363.901 153.49 321.688 141.725 283.282 131.174C261.393 125.16 240.027 117.236 217.972 111.842C202.724 108.113 187.064 105.835 171.47 104.109C150.415 101.779 126.616 101.356 107.205 91.8829C101.067 88.8875 94.9483 85.0055 102.502 80.1792C120.556 68.6452 143.1 68.1927 163.947 69.5206C200.172 71.8279 235.495 86.5702 270.533 95.2268C294.51 101.15 317.471 102.57 342.114 101.81C362.45 101.183 386.563 101.685 404.916 91.6739" stroke="#DEDEDE" stroke-width="3" stroke-linecap="round"/>
<path d="M223.103 66.8156C223.103 42.0646 243.168 22 267.919 22V22C292.67 22 312.734 42.0646 312.734 66.8156V83.1725C312.734 135.085 306.126 186.787 293.07 237.03L272.672 315.522C267.704 334.641 250.445 347.987 230.692 347.987V347.987C202.307 347.987 181.572 321.175 188.711 293.703L203.438 237.03C216.495 186.787 223.103 135.085 223.103 83.1725V66.8156Z" fill="#C4C4C4"/>
<path d="M223.103 66.8156C223.103 42.0646 243.168 22 267.919 22V22C292.67 22 312.734 42.0646 312.734 66.8156V83.1725C312.734 135.085 306.126 186.787 293.07 237.03L272.672 315.522C267.704 334.641 250.445 347.987 230.692 347.987V347.987C202.307 347.987 181.572 321.175 188.711 293.703L203.438 237.03C216.495 186.787 223.103 135.085 223.103 83.1725V66.8156Z" fill="url(#paint4_linear_40_3)"/>
<rect x="241.521" y="68.6573" width="30.5592" height="30.5592" rx="15.2796" fill="white"/>
<rect x="250.252" y="71.9315" width="17.4624" height="17.4624" rx="8.7312" fill="url(#paint5_linear_40_3)"/>
<rect x="276.445" y="68.6573" width="30.5592" height="30.5592" rx="15.2796" fill="white"/>
<rect x="285.177" y="71.9315" width="17.4624" height="17.4624" rx="8.7312" fill="url(#paint6_linear_40_3)"/>
<path d="M295.124 112.382L296.819 110.89C297.642 110.165 296.953 108.83 295.877 109.067C285.954 111.25 275.668 111.25 265.745 109.067C264.669 108.83 263.98 110.165 264.803 110.89L266.498 112.382C274.661 119.566 286.961 119.566 295.124 112.382Z" fill="white"/>
<path d="M403.976 148.102C363.901 153.49 321.688 141.725 283.282 131.174C261.393 125.16 240.027 117.236 217.972 111.842" stroke="#DEDEDE" stroke-width="3" stroke-linecap="round"/>
<path d="M46.857 240.441C58.4314 239.099 69.935 238.931 81.55 238.351C104.659 237.195 127.738 233.97 150.361 229.207C160.804 227.009 170.526 222.954 179.255 216.72C180.844 215.585 182.701 212.628 184.532 212.017C185.877 211.569 181.969 219.953 181.762 220.325C166.311 248.137 140.078 264.015 110.182 273.357C88.156 280.24 64.1885 283.309 41.4232 286.942C32.1213 288.426 22.4668 291.226 13 291.226" stroke="#545454" stroke-width="3" stroke-linecap="round"/>
<path d="M102.754 169.065C105.315 151.775 121.408 139.834 138.699 142.395V142.395C155.99 144.955 167.931 161.049 165.37 178.339L163.678 189.766C158.306 226.032 148.341 261.467 134.021 295.216L111.65 347.939C106.201 360.781 92.7629 368.319 78.9631 366.276V366.276C59.1338 363.339 47.4226 342.462 55.2524 324.009L71.4048 285.942C85.7248 252.193 95.6906 216.758 101.062 180.492L102.754 169.065Z" fill="#C4C4C4"/>
<path d="M102.754 169.065C105.315 151.775 121.408 139.834 138.699 142.395V142.395C155.99 144.955 167.931 161.049 165.37 178.339L163.678 189.766C158.306 226.032 148.341 261.467 134.021 295.216L111.65 347.939C106.201 360.781 92.7629 368.319 78.9631 366.276V366.276C59.1338 363.339 47.4226 342.462 55.2524 324.009L71.4048 285.942C85.7248 252.193 95.6906 216.758 101.062 180.492L102.754 169.065Z" fill="url(#paint7_linear_40_3)"/>
<rect x="115.43" y="172.258" width="21.5814" height="21.5814" rx="10.7907" transform="rotate(8.42478 115.43 172.258)" fill="white"/>
<rect x="121.191" y="175.448" width="12.3322" height="12.3322" rx="6.1661" transform="rotate(8.42478 121.191 175.448)" fill="url(#paint8_linear_40_3)"/>
<rect x="139.828" y="175.871" width="21.5814" height="21.5814" rx="10.7907" transform="rotate(8.42478 139.828 175.871)" fill="white"/>
<rect x="145.589" y="179.062" width="12.3322" height="12.3322" rx="6.1661" transform="rotate(8.42478 145.589 179.062)" fill="url(#paint9_linear_40_3)"/>
<path d="M148.353 208.35L149.691 207.483C150.341 207.062 149.998 206.058 149.222 206.112C142.064 206.61 134.878 205.546 128.172 202.994C127.445 202.717 126.825 203.579 127.325 204.17L128.355 205.388C133.314 211.251 141.907 212.524 148.353 208.35Z" fill="white"/>
<path d="M46.857 240.441C58.4314 239.099 69.935 238.931 81.55 238.351C104.659 237.195 127.738 233.97 150.361 229.207C160.804 227.009 170.526 222.954 179.255 216.72C180.844 215.585 182.701 212.628 184.532 212.017C185.877 211.569 181.969 219.953 181.762 220.325" stroke="#3D3D3D" stroke-width="3" stroke-linecap="round"/>
</g>
<defs>
<radialGradient id="paint0_radial_40_3" cx="0" cy="0" r="1" gradientUnits="userSpaceOnUse" gradientTransform="translate(334 517) rotate(-77.1265) scale(362.174 611.462)">
<stop offset="0.161458" stop-color="#FFA800" stop-opacity="0"/>
<stop offset="0.677083" stop-color="#FF3D00"/>
</radialGradient>
<linearGradient id="paint1_linear_40_3" x1="334" y1="153" x2="317.5" y2="677" gradientUnits="userSpaceOnUse">
<stop stop-color="#FFA800"/>
<stop offset="1" stop-color="#FF3D00"/>
</linearGradient>
<linearGradient id="paint2_linear_40_3" x1="387.273" y1="244.834" x2="387.273" y2="267.994" gradientUnits="userSpaceOnUse">
<stop stop-color="#3D3D3D"/>
<stop offset="1"/>
</linearGradient>
<linearGradient id="paint3_linear_40_3" x1="432.468" y1="254.979" x2="432.468" y2="278.138" gradientUnits="userSpaceOnUse">
<stop stop-color="#3D3D3D"/>
<stop offset="1"/>
</linearGradient>
<linearGradient id="paint4_linear_40_3" x1="267.919" y1="22" x2="267.919" y2="376.842" gradientUnits="userSpaceOnUse">
<stop stop-color="#00B2FF"/>
<stop offset="1" stop-color="#0066FF"/>
</linearGradient>
<linearGradient id="paint5_linear_40_3" x1="258.983" y1="71.9315" x2="258.983" y2="89.3939" gradientUnits="userSpaceOnUse">
<stop stop-color="#3D3D3D"/>
<stop offset="1"/>
</linearGradient>
<linearGradient id="paint6_linear_40_3" x1="293.908" y1="71.9315" x2="293.908" y2="89.3939" gradientUnits="userSpaceOnUse">
<stop stop-color="#3D3D3D"/>
<stop offset="1"/>
</linearGradient>
<linearGradient id="paint7_linear_40_3" x1="138.699" y1="142.395" x2="101.984" y2="390.285" gradientUnits="userSpaceOnUse">
<stop stop-color="#00FFA3"/>
<stop offset="1" stop-color="#00FF47"/>
</linearGradient>
<linearGradient id="paint8_linear_40_3" x1="127.357" y1="175.448" x2="127.357" y2="187.781" gradientUnits="userSpaceOnUse">
<stop stop-color="#3D3D3D"/>
<stop offset="1"/>
</linearGradient>
<linearGradient id="paint9_linear_40_3" x1="151.755" y1="179.062" x2="151.755" y2="191.394" gradientUnits="userSpaceOnUse">
<stop stop-color="#3D3D3D"/>
<stop offset="1"/>
</linearGradient>
<clipPath id="clip0_40_3">
<rect width="500" height="500" fill="white"/>
</clipPath>
</defs>
</svg>
