<svg width="500" height="350" viewBox="0 0 500 350" fill="none" xmlns="http://www.w3.org/2000/svg">
<g clip-path="url(#clip0_103_812)">
<rect width="500" height="350" rx="25" fill="black"/>
<rect width="500" height="350" rx="25" fill="url(#paint0_radial_103_812)"/>
<mask id="mask0_103_812" style="mask-type:alpha" maskUnits="userSpaceOnUse" x="269" y="132" width="159" height="280">
<path d="M348.585 163.59C353.435 141.98 374.886 128.394 396.496 133.245V133.245C418.107 138.095 431.693 159.546 426.842 181.156L423.636 195.438C413.463 240.763 397.561 284.609 376.314 325.918L343.122 390.452C335.037 406.171 317.353 414.442 300.106 410.57V410.57C275.323 405.008 262.474 377.534 274.091 354.947L298.056 308.352C319.303 267.043 335.205 223.197 345.379 177.872L348.585 163.59Z" fill="url(#paint1_radial_103_812)"/>
</mask>
<g mask="url(#mask0_103_812)">
<path d="M348.585 163.59C353.435 141.98 374.886 128.394 396.496 133.245V133.245C418.107 138.095 431.693 159.546 426.842 181.156L423.636 195.438C413.463 240.763 397.561 284.609 376.314 325.918L343.122 390.452C335.037 406.171 317.353 414.442 300.106 410.57V410.57C275.323 405.008 262.474 377.534 274.091 354.947L298.056 308.352C319.303 267.043 335.205 223.197 345.379 177.872L348.585 163.59Z" fill="url(#paint2_linear_103_812)"/>
<rect x="364.304" y="168.808" width="27.3453" height="27.3453" rx="13.6727" transform="rotate(12.6511 364.304 168.808)" fill="white"/>
<rect x="371.285" y="173.378" width="15.6259" height="15.6259" rx="7.81295" transform="rotate(12.6511 371.285 173.378)" fill="url(#paint3_linear_103_812)"/>
<rect x="394.797" y="175.652" width="27.3453" height="27.3453" rx="13.6727" transform="rotate(12.6511 394.797 175.652)" fill="white"/>
<rect x="401.779" y="180.222" width="15.6259" height="15.6259" rx="7.81295" transform="rotate(12.6511 401.779 180.222)" fill="url(#paint4_linear_103_812)"/>
<path d="M402.536 217.49L404.308 216.519C405.169 216.048 404.829 214.747 403.843 214.743C394.751 214.704 385.77 212.688 377.535 208.837C376.642 208.42 375.778 209.45 376.355 210.245L377.543 211.88C383.261 219.752 394.001 222.162 402.536 217.49Z" fill="white"/>
</g>
<path d="M195 297C199.484 279.234 207.247 261.88 211 244" stroke="#00B2FF" stroke-width="7" stroke-linecap="round"/>
<path d="M211 316C213.534 307.279 217.276 298.51 217.88 289.375C218.299 283.042 219.43 277.122 221 271" stroke="#00B2FF" stroke-width="7" stroke-linecap="round"/>
<path d="M94 272C93.6591 277.546 91.2876 282.555 89.6667 287.792C87.797 293.832 86.9846 299.888 85.6543 306.042C84.2183 312.685 82.0724 319.318 81 326" stroke="#00FFA3" stroke-width="7" stroke-linecap="round"/>
<path d="M74 281C71.9842 290.998 69.1836 300.969 66.6889 310.826C65.4312 315.795 62.8875 320.424 61.5556 325.424C61.1118 327.089 60 328.193 60 330" stroke="#00FFA3" stroke-width="7" stroke-linecap="round"/>
<path d="M353.367 102.093C326.381 105.709 297.955 97.8125 272.093 90.7306C257.353 86.6945 242.965 81.3755 228.114 77.7552C217.846 75.2522 207.301 73.7231 196.801 72.565C182.622 71.0012 166.596 70.717 153.525 64.3589C149.392 62.3484 145.272 59.7428 150.359 56.5034C162.515 48.7619 177.696 48.4582 191.734 49.3494C216.128 50.8981 239.914 60.7931 263.508 66.6033C279.654 70.5792 295.116 71.5317 311.71 71.0219C325.403 70.6013 341.641 70.9379 354 64.2186" stroke="#DEDEDE" stroke-width="3" stroke-linecap="round"/>
<path d="M231.136 47.2372C231.136 30.5376 244.673 17 261.373 17V17C278.073 17 291.61 30.5377 291.61 47.2372V58.2733C291.61 93.2988 287.152 128.182 278.342 162.082L264.58 215.04C261.228 227.939 249.583 236.945 236.256 236.945V236.945C217.105 236.945 203.114 218.854 207.931 200.319L217.868 162.082C226.677 128.182 231.136 93.2988 231.136 58.2733V47.2372Z" fill="#C4C4C4"/>
<path d="M231.136 47.2372C231.136 30.5376 244.673 17 261.373 17V17C278.073 17 291.61 30.5377 291.61 47.2372V58.2733C291.61 93.2988 287.152 128.182 278.342 162.082L264.58 215.04C261.228 227.939 249.583 236.945 236.256 236.945V236.945C217.105 236.945 203.114 218.854 207.931 200.319L217.868 162.082C226.677 128.182 231.136 93.2988 231.136 58.2733V47.2372Z" fill="url(#paint5_linear_103_812)"/>
<rect x="243.562" y="48.4798" width="20.6184" height="20.6184" rx="10.3092" fill="white"/>
<rect x="249.453" y="50.6889" width="11.7819" height="11.7819" rx="5.89096" fill="url(#paint6_linear_103_812)"/>
<rect x="267.126" y="48.4798" width="20.6184" height="20.6184" rx="10.3092" fill="white"/>
<rect x="273.017" y="50.6889" width="11.7819" height="11.7819" rx="5.89096" fill="url(#paint7_linear_103_812)"/>
<path d="M279.728 77.9811L280.872 76.9746C281.428 76.4854 280.962 75.5845 280.237 75.7442C273.541 77.2174 266.601 77.2174 259.906 75.7442C259.181 75.5845 258.715 76.4854 259.271 76.9746L260.415 77.9811C265.922 82.8283 274.221 82.8283 279.728 77.9811Z" fill="white"/>
<path d="M353 102.102C326.069 105.683 297.7 97.8628 271.89 90.8496C257.18 86.8526 242.822 81.5852 228 78" stroke="#DEDEDE" stroke-width="3" stroke-linecap="round"/>
<path d="M72.6616 171.026C80.4087 170.128 88.1085 170.016 95.8828 169.628C111.35 168.855 126.798 166.697 141.94 163.511C148.93 162.04 155.438 159.328 161.28 155.157C162.343 154.398 163.587 152.42 164.812 152.012C165.712 151.712 163.097 157.32 162.958 157.569C152.616 176.175 135.057 186.796 115.047 193.046C100.304 197.651 84.2622 199.704 69.0246 202.134C62.7985 203.127 56.3364 205 50 205" stroke="white" stroke-width="3" stroke-linecap="round"/>
<path d="M110.028 123.14C111.756 111.474 122.614 103.417 134.28 105.145V105.145C145.946 106.873 154.003 117.731 152.275 129.397L151.133 137.107C147.509 161.575 140.785 185.483 131.123 208.254L116.029 243.826C112.353 252.491 103.287 257.577 93.9758 256.198V256.198C80.5969 254.217 72.6953 240.131 77.9781 227.681L88.8761 201.997C98.5379 179.226 105.262 155.318 108.886 130.85L110.028 123.14Z" fill="#C4C4C4"/>
<path d="M110.028 123.14C111.756 111.474 122.614 103.417 134.28 105.145V105.145C145.946 106.873 154.003 117.731 152.275 129.397L151.133 137.107C147.509 161.575 140.785 185.483 131.123 208.254L116.029 243.826C112.353 252.491 103.287 257.577 93.9758 256.198V256.198C80.5969 254.217 72.6953 240.131 77.9781 227.681L88.8761 201.997C98.5379 179.226 105.262 155.318 108.886 130.85L110.028 123.14Z" fill="url(#paint8_linear_103_812)"/>
<rect x="118.58" y="125.294" width="14.561" height="14.561" rx="7.2805" transform="rotate(8.42478 118.58 125.294)" fill="white"/>
<rect x="122.467" y="127.447" width="8.32057" height="8.32057" rx="4.16028" transform="rotate(8.42478 122.467 127.447)" fill="url(#paint9_linear_103_812)"/>
<rect x="135.042" y="127.732" width="14.561" height="14.561" rx="7.2805" transform="rotate(8.42478 135.042 127.732)" fill="white"/>
<rect x="138.928" y="129.885" width="8.32057" height="8.32057" rx="4.16028" transform="rotate(8.42478 138.928 129.885)" fill="url(#paint10_linear_103_812)"/>
<path d="M140.793 149.645L141.696 149.06C142.135 148.776 141.903 148.099 141.379 148.135C136.55 148.472 131.702 147.753 127.177 146.032C126.686 145.845 126.268 146.426 126.606 146.825L127.301 147.647C130.646 151.603 136.444 152.462 140.793 149.645Z" fill="white"/>
<path d="M72 171C79.8026 170.103 87.5576 169.992 95.3875 169.604C110.966 168.832 126.524 166.677 141.775 163.495C148.815 162.027 155.369 159.318 161.253 155.153C162.324 154.395 163.577 152.419 164.81 152.012C165.717 151.712 163.083 157.313 162.944 157.562" stroke="white" stroke-width="3" stroke-linecap="round"/>
</g>
<defs>
<radialGradient id="paint0_radial_103_812" cx="0" cy="0" r="1" gradientUnits="userSpaceOnUse" gradientTransform="translate(-8.5 285.5) rotate(-23.8505) scale(519.351 741.929)">
<stop stop-color="#7A311A"/>
<stop offset="1" stop-color="#73165E"/>
</radialGradient>
<radialGradient id="paint1_radial_103_812" cx="0" cy="0" r="1" gradientUnits="userSpaceOnUse" gradientTransform="translate(343.155 357.009) rotate(-77.1265) scale(244.36 412.555)">
<stop offset="0.161458" stop-color="#FFA800" stop-opacity="0"/>
<stop offset="0.677083" stop-color="#FF3D00"/>
</radialGradient>
<linearGradient id="paint2_linear_103_812" x1="343.155" y1="111.417" x2="332.022" y2="464.961" gradientUnits="userSpaceOnUse">
<stop stop-color="#FFA800"/>
<stop offset="1" stop-color="#FF3D00"/>
</linearGradient>
<linearGradient id="paint3_linear_103_812" x1="379.098" y1="173.378" x2="379.098" y2="189.004" gradientUnits="userSpaceOnUse">
<stop stop-color="#3D3D3D"/>
<stop offset="1"/>
</linearGradient>
<linearGradient id="paint4_linear_103_812" x1="409.592" y1="180.222" x2="409.592" y2="195.848" gradientUnits="userSpaceOnUse">
<stop stop-color="#3D3D3D"/>
<stop offset="1"/>
</linearGradient>
<linearGradient id="paint5_linear_103_812" x1="261.373" y1="17" x2="261.373" y2="256.413" gradientUnits="userSpaceOnUse">
<stop stop-color="#00B2FF"/>
<stop offset="1" stop-color="#0066FF"/>
</linearGradient>
<linearGradient id="paint6_linear_103_812" x1="255.344" y1="50.6889" x2="255.344" y2="62.4709" gradientUnits="userSpaceOnUse">
<stop stop-color="#3D3D3D"/>
<stop offset="1"/>
</linearGradient>
<linearGradient id="paint7_linear_103_812" x1="278.908" y1="50.6889" x2="278.908" y2="62.4709" gradientUnits="userSpaceOnUse">
<stop stop-color="#3D3D3D"/>
<stop offset="1"/>
</linearGradient>
<linearGradient id="paint8_linear_103_812" x1="134.28" y1="105.145" x2="109.508" y2="272.397" gradientUnits="userSpaceOnUse">
<stop stop-color="#00FFA3"/>
<stop offset="1" stop-color="#00FF47"/>
</linearGradient>
<linearGradient id="paint9_linear_103_812" x1="126.627" y1="127.447" x2="126.627" y2="135.767" gradientUnits="userSpaceOnUse">
<stop stop-color="#3D3D3D"/>
<stop offset="1"/>
</linearGradient>
<linearGradient id="paint10_linear_103_812" x1="143.089" y1="129.885" x2="143.089" y2="138.205" gradientUnits="userSpaceOnUse">
<stop stop-color="#3D3D3D"/>
<stop offset="1"/>
</linearGradient>
<clipPath id="clip0_103_812">
<rect width="500" height="350" rx="25" fill="white"/>
</clipPath>
</defs>
</svg>
